<svg xmlns="http://www.w3.org/2000/svg" width="512" height="512" id="twitter"><switch><g><path fill="#5FA9DD" d="M507 256.879c0 138.066-111.934 250-250 250-138.067 0-250-111.934-250-250 0-138.067 111.933-250 250-250 138.066 0 250 111.933 250 250zm0 0"></path><path fill="#F2F2F2" d="M410.125 186.551a119.44 119.44 0 0 1-34.315 9.403c12.338-7.404 21.803-19.108 26.286-33.056a120.13 120.13 0 0 1-37.95 14.495c-10.901-11.62-26.438-18.869-43.628-18.869-33.01 0-59.753 26.768-59.753 59.75 0 4.681.522 9.253 1.545 13.627-49.656-2.502-93.698-26.289-123.162-62.454-5.157 8.837-8.095 19.103-8.095 30.048 0 20.74 10.554 39.04 26.569 49.746-9.792-.308-18.996-3.003-27.069-7.485v.762c0 28.94 20.607 53.094 47.938 58.577a59.542 59.542 0 0 1-26.982 1.045c7.616 23.74 29.681 41.018 55.836 41.496-20.454 16.037-46.218 25.568-74.223 25.568-4.831 0-9.596-.262-14.253-.827 26.438 16.951 57.838 26.852 91.588 26.852 109.91 0 170.032-91.065 170.032-170.029 0-2.592-.065-5.16-.174-7.728 11.684-8.421 21.802-18.951 29.81-30.921zm0 0"></path></g></switch></svg>