<svg xmlns="http://www.w3.org/2000/svg" viewBox="0 0 96.99 92.15">
  <defs>
    <style>
    .cls-1 {
      fill: #fff;
    }
    </style>
  </defs>
  <g id="Layer_2" data-name="Layer 2">
    <g id="Layer_1-2" data-name="Layer 1">
      <path class="cls-1" d="M94.38,44.6l-3.89-2.3a5.74,5.74,0,0,0-5.23,0l-3.89,2.3a4.1,4.1,0,0,0-1,.79l-8.55-6.62a4.73,4.73,0,0,0,.14-1V16a5.93,5.93,0,0,0-2.61-4.58L51.11.64a5.64,5.64,0,0,0-5.22,0L27.61,11.45A5.92,5.92,0,0,0,25,16V37.78a4.34,4.34,0,0,0,.13,1L16.6,45.39a4.65,4.65,0,0,0-1-.79l-3.89-2.29a5.18,5.18,0,0,0-2.61-.64,5.15,5.15,0,0,0-2.61.64L2.61,44.6A5.89,5.89,0,0,0,0,49.17v4.66A5.89,5.89,0,0,0,2.61,58.4l3.9,2.29a5.15,5.15,0,0,0,2.61.64,5.28,5.28,0,0,0,2.61-.64l3.89-2.29a5.88,5.88,0,0,0,2.62-4.57V49.17a4.42,4.42,0,0,0-.16-1.09l8.5-6.59a4.86,4.86,0,0,0,1,.87L45.89,53.17a4,4,0,0,0,1.12.45V69a4.53,4.53,0,0,0-1.12.45l-5.4,3.2a5.92,5.92,0,0,0-2.6,4.58v6.53a5.93,5.93,0,0,0,2.6,4.58l5.4,3.2a5.62,5.62,0,0,0,5.21,0l5.4-3.2a5.94,5.94,0,0,0,2.61-4.58V77.2a5.93,5.93,0,0,0-2.61-4.58l-5.4-3.2A4.07,4.07,0,0,0,50,69V53.61a4.45,4.45,0,0,0,1.06-.43L69.38,42.36a4.58,4.58,0,0,0,1-.87l8.5,6.59a4.41,4.41,0,0,0-.16,1.08v4.67a5.87,5.87,0,0,0,2.61,4.57l3.89,2.29a5.66,5.66,0,0,0,5.23,0l3.89-2.29A5.88,5.88,0,0,0,97,53.83V49.16a5.86,5.86,0,0,0-2.61-4.56M15.21,53.83a3,3,0,0,1-1.12,2l-3.9,2.29a2.26,2.26,0,0,1-1.07.22A2.35,2.35,0,0,1,8,58.08L4.15,55.79a3,3,0,0,1-1.12-2V49.17a3,3,0,0,1,1.12-2L8,44.92a2.35,2.35,0,0,1,1.08-.22,2.26,2.26,0,0,1,1.07.22l3.9,2.29a3,3,0,0,1,1.12,2ZM55,75.23a3,3,0,0,1,1.12,2v6.53a3,3,0,0,1-1.12,2l-5.39,3.2a2.32,2.32,0,0,1-1.06.21,2.25,2.25,0,0,1-1.06-.21L42,85.7a3,3,0,0,1-1.12-2V77.2a3,3,0,0,1,1.12-2l5.4-3.2a1.14,1.14,0,0,1,.32-.13h1.47a1.24,1.24,0,0,1,.33.13ZM69,37.78a3,3,0,0,1-1.12,2L62,43.19a13.51,13.51,0,0,0-4.5-8.5,12.14,12.14,0,0,1-2.35,2,10.43,10.43,0,0,1,3.93,8.23l-9.54,5.64a2.24,2.24,0,0,1-1.06.22,2.3,2.3,0,0,1-1.07-.22l-9.54-5.64a10.46,10.46,0,0,1,3.94-8.23,11.8,11.8,0,0,1-2.35-2,13.48,13.48,0,0,0-4.5,8.5l-5.82-3.44a3,3,0,0,1-1.12-2V16a3,3,0,0,1,1.12-2L47.43,3.25A2.3,2.3,0,0,1,48.5,3a2.24,2.24,0,0,1,1.06.22L67.84,14.06A3,3,0,0,1,69,16Zm25,16a2.94,2.94,0,0,1-1.12,2L89,58.08a2.3,2.3,0,0,1-1.07.21,2.35,2.35,0,0,1-1.08-.21l-3.89-2.29a2.94,2.94,0,0,1-1.12-2V49.17a3,3,0,0,1,1.12-2l3.89-2.29a2.35,2.35,0,0,1,1.08-.22,2.3,2.3,0,0,1,1.07.22l3.89,2.29a2.94,2.94,0,0,1,1.12,2Z" />
      <path class="cls-1" d="M48.5,19.2a7.57,7.57,0,1,0,7.71,7.57A7.64,7.64,0,0,0,48.5,19.2m0,12.11a4.54,4.54,0,1,1,4.68-4.54,4.62,4.62,0,0,1-4.68,4.54" />
    </g>
  </g>
</svg>