<svg xmlns="http://www.w3.org/2000/svg" width="396" height="120.214" viewBox="0 0 280 85">
  <path fill="#f9d304" d="M0 42.564 42.436 85 85 42.436 42.564 0zm42.47 19.451L22.986 42.53l39.03-.058z"/>
  <path d="M114.794 61.573c-.423 0-.725-.363-.725-.786V32.25h-8.283c-.423 0-.786-.302-.786-.725v-6.953a.8.8 0 0 1 .786-.786h25.937c.484 0 .786.363.786.786v6.953c0 .423-.302.725-.786.725h-8.283v28.537a.8.8 0 0 1-.786.786zm20.92 0a.67.67 0 0 1-.605-.363c-.182-.181-.182-.483-.121-.725l14.087-36.215a.79.79 0 0 1 .725-.484h8.102c.302 0 .605.181.726.484l13.845 36.215c.06.242.06.484-.121.725a.67.67 0 0 1-.605.363h-8.404a.79.79 0 0 1-.725-.484l-2.237-5.562-13.603.06-2.237 5.502a.79.79 0 0 1-.726.484zm13.542-13.603h8.707l-4.354-12.818zm44.257 13.966c-2.902 0-5.804-.544-8.586-1.632a23.3 23.3 0 0 1-7.315-4.354.85.85 0 0 1-.182-.906l2.117-7.195c.12-.242.302-.423.544-.423.242-.06.483 0 .665.181 3.204 3.023 6.832 5.744 11.366 5.986 1.21.06 2.54.12 3.688-.242 3.567-1.15 2.056-4.777-.604-5.865q-1.36-.544-3.81-1.27c-2.418-.665-4.413-1.39-5.924-2.116-1.633-.725-3.023-1.874-4.233-3.385-1.148-1.572-1.753-3.628-1.753-6.107q0-3.536 1.814-6.167c1.814-2.63 2.902-3.144 5.018-4.05S190.913 23 193.694 23c2.479 0 4.897.363 7.316 1.149a25.6 25.6 0 0 1 6.348 2.962c.302.242.423.605.242.968l-1.995 6.771c-.06.242-.242.363-.484.423-.181.06-.423.06-.605-.06-2.72-1.693-5.441-3.749-8.645-4.172-2.116-.302-5.32-.181-6.046 2.358-.907 3.265 3.87 4.111 6.046 4.776q3.627 1.089 5.985 2.177c1.633.786 3.084 1.995 4.232 3.507 1.21 1.571 1.814 3.688 1.814 6.227 0 2.479-.665 4.595-1.935 6.409-1.209 1.813-2.962 3.143-5.139 4.11-2.176.847-4.595 1.33-7.315 1.33m30.23-.363c-.424 0-.726-.363-.726-.786V32.25h-8.283c-.423 0-.786-.302-.786-.725v-6.953a.8.8 0 0 1 .786-.786h25.937c.484 0 .786.363.786.786v6.953c0 .423-.302.725-.786.725h-8.283v28.537a.8.8 0 0 1-.786.786zm34.945 0c-.423 0-.726-.363-.726-.786v-14.39l-12.817-21.462a.74.74 0 0 1 .06-.786c.121-.242.363-.363.666-.363h7.86c.302 0 .543.12.664.423l8.223 13.422 8.041-13.422a.74.74 0 0 1 .665-.423h7.92c.242 0 .544.12.665.363s.121.544 0 .786l-12.575 21.221v14.631a.8.8 0 0 1-.786.786z" fill="#ffffff"/>
</svg>