<svg xmlns="http://www.w3.org/2000/svg" viewBox="0 0 357.5 100">
  <path xmlns="http://www.w3.org/2000/svg" fill="#f5333f" d="M0 50.06 49.94 100 100 49.94 50.06 0zm49.97 22.9L27.03 50l45.94-.06z"/>
  <path d="M133.3 65.35c-.58 0-1-.5-1-1.07V25.55h-11.23c-.58 0-1.07-.4-1.07-.98v-9.44c0-.57.5-1.06 1.07-1.06h35.2c.65 0 1.06.49 1.06 1.06v9.44c0 .57-.4.98-1.06.98h-11.24v38.73c0 .58-.5 1.07-1.07 1.07zm28.38 0a.9.9 0 0 1-.82-.5c-.24-.24-.24-.65-.16-.98l19.12-49.15c.16-.4.57-.65.98-.65h11c.4 0 .82.24.98.65l18.79 49.15c.08.33.08.66-.16.99a.9.9 0 0 1-.82.49h-11.41c-.41 0-.82-.25-.98-.66l-3.04-7.55-18.46.09-3.04 7.46c-.16.41-.57.66-.98.66zm18.38-18.46h11.82l-5.91-17.4zm60.06 18.95c-3.93 0-7.87-.74-11.65-2.21a32 32 0 0 1-9.93-5.91 1.2 1.2 0 0 1-.24-1.23l2.87-9.77c.16-.32.41-.57.74-.57.33-.08.66 0 .9.25 4.35 4.1 9.27 7.79 15.43 8.12 1.64.08 3.44.16 5-.33 4.84-1.56 2.8-6.48-.82-7.96a62 62 0 0 0-5.17-1.72 49 49 0 0 1-8.04-2.87 15.4 15.4 0 0 1-5.74-4.6q-2.36-3.21-2.38-8.29 0-4.8 2.46-8.37c2.46-3.57 3.94-4.26 6.81-5.5S236.6 13 240.37 13q5.03-.02 9.93 1.56c3.2.98 6.07 2.38 8.61 4.02.41.33.58.82.33 1.31l-2.7 9.2c-.09.32-.33.48-.66.57a1 1 0 0 1-.82-.09c-3.7-2.3-7.39-5.08-11.74-5.66-2.87-.4-7.22-.24-8.2 3.2-1.23 4.43 5.25 5.58 8.2 6.49q4.93 1.47 8.13 2.95a16 16 0 0 1 5.74 4.76c1.64 2.13 2.46 5 2.46 8.45q-.02 5.02-2.62 8.7c-1.64 2.46-4.02 4.26-6.98 5.58a27 27 0 0 1-9.93 1.8m41.03-.5c-.57 0-.98-.48-.98-1.06V25.55h-11.25c-.57 0-1.06-.4-1.06-.98v-9.44c0-.57.49-1.06 1.06-1.06h35.2c.66 0 1.07.49 1.07 1.06v9.44c0 .57-.4.98-1.06.98h-11.25v38.73c0 .58-.49 1.07-1.06 1.07zm47.43 0c-.58 0-.99-.48-.99-1.06V44.75l-17.4-29.12a1 1 0 0 1 .09-1.07c.16-.33.5-.5.9-.5h10.67c.4 0 .74.17.9.58l11.16 18.22 10.91-18.22a1 1 0 0 1 .9-.57h10.75c.33 0 .74.16.9.49s.17.74 0 1.07l-17.06 28.8v19.85c0 .58-.5 1.07-1.07 1.07zm-50.32 25.94q-.55 0-.9-.38a1.4 1.4 0 0 1 0-1.89q.37-.38.9-.38c.53 0 .67.13.9.38s.34.55.34.94-.12.7-.35.95-.53.38-.9.38m14.77 0a6 6 0 0 1-3.07-.8q-1.37-.83-2.15-2.23a5 5 0 0 1-.78-3.15q0-1.7.8-3.1a6.05 6.05 0 0 1 7.74-2.47q1.2.55 2.06 1.45.12.17 0 .33l-1.81 1.48q-.08.1-.2.1-.15 0-.18-.1a2.9 2.9 0 0 0-3.86-.6c-1.14.7-1.56 2-1.5 3.3a3.2 3.2 0 0 0 2.27 2.82c1.14.34 2.27.07 3.09-.8q.07-.08.19-.06.1 0 .17.07l1.85 1.3q.1.17 0 .32a7 7 0 0 1-2.14 1.57q-1.24.57-2.48.57m18.34 0a6.1 6.1 0 0 1-5.33-3.01q-.8-1.42-.8-3.15 0-1.7.8-3.1a6 6 0 0 1 5.33-3.02q1.7 0 3.11.8c1.41.8 1.68 1.28 2.21 2.21q.83 1.42.82 3.11.01 1.73-.82 3.13a6 6 0 0 1-5.32 3.03m.04-2.75q.84 0 1.53-.43.72-.44 1.12-1.24.43-.78.42-1.74c0-.6-.13-1.2-.42-1.71a3 3 0 0 0-1.12-1.23 3 3 0 0 0-3.09 0q-.75.46-1.16 1.23-.43.8-.42 1.71 0 .95.42 1.74.44.78 1.16 1.22.72.45 1.56.45m13.7 2.75a.25.25 0 0 1-.26-.25V79.61c0-.13.12-.25.25-.25h2.75q.16.01.23.14l2.86 7.05 2.84-7.05a.3.3 0 0 1 .23-.14h2.74c.14 0 .25.12.25.25v11.42q-.02.23-.25.25h-2.23a.25.25 0 0 1-.25-.25V84.9l-2.32 5.91a.3.3 0 0 1-.21.14h-1.6q-.17-.01-.23-.14l-2.35-5.9v6.13c0 .14-.11.25-.25.25z"/>
</svg>
