<svg xmlns="http://www.w3.org/2000/svg" viewBox="0 0 625.9 539.25"><defs><style>.cls-1{fill:#fcd401;}.cls-2{fill:#fff;}</style></defs><g id="Layer_2" data-name="Layer 2"><g id="Layer_1-2" data-name="Layer 1"><path class="cls-1" d="M334,173.43c9.51,1.58,78.22,13.55,75.62,28.35.08-.72.15-13.59-90.48-29q-3.09-.08-6.12-.1c22.63,4.37,89.36,18.37,89.33,31.45,7.25-1.53,12.14-4.06,13.2-7.8a38.87,38.87,0,0,1,4.63,3.87,29,29,0,0,1,6,8.22,27.55,27.55,0,0,0-5.38-8.75c-15.8-17.21-52-24.18-86.75-26.27"/><path class="cls-1" d="M381.06,417.07a6.45,6.45,0,0,0,3.86-1.55c-2.24-2.35-3.9-4.22-5.18-5.73-1.73,1-2.5,2.21-2.5,3.68a3.57,3.57,0,0,0,3.82,3.6"/><path class="cls-1" d="M297.13,172.84h0c-1.21,0-2.41.06-3.59.1,19.34,3.38,101.12,18.49,99.21,32.59a83.3,83.3,0,0,0,9.08-1.26c-2.72-3-20-17.84-104.69-31.43"/><path class="cls-1" d="M607.78,370.67c1.07-3.1,2.58-6.84,4.43-11,7.5-16.41,11.64-28.33,13-37.52a50.63,50.63,0,0,0-1.38-22.65l-.08-.25c-2-6.08-8.9-20.56-30.82-23.68l-.53-.08-9.91-.9c0-1.66.06-3.33.06-5C582.57,120.72,461.86,0,313,0,189.05,0,84.69,83.57,53.12,197.41A66.49,66.49,0,0,0,46,202.84c-16.21,14.32-20.18,30-20.66,40.69-.95,21.14,8.47,32.79,16.55,38.86.61.45,1.23.85,1.85,1.27,0,.59.07,1.18.11,1.77a118.39,118.39,0,0,0-27.75,29.91C3.57,334.57-1.68,357.6.47,383.8c2.24,27.45,14.65,49.69,36.88,66.12,16.17,11.94,35.9,18,58.66,18a152.08,152.08,0,0,0,22.63-1.79c2.84-.33,5.59-.79,8.3-1.31a269.6,269.6,0,0,0,361.5,9.5c.55.24,1.08.51,1.63.74a78.58,78.58,0,0,0,28.65,5.55h.78c11.58,0,23-3.49,34-10.38a51.68,51.68,0,0,0,8-6.25l.83,12.41,27.51-8.91c23.66-7.66,30.51-21.19,32.1-31.2,1.21-7.63,1-22.5-13.9-36.45a60.29,60.29,0,0,0-8.68-6.74c2.92-7.62,5.65-14.92,8.25-22Zm-68-125.26a36.86,36.86,0,0,0-9.51-4.63c-.94-.3-1.91-.54-2.86-.8-.34-2.46-.69-4.91-1.12-7.34a59.1,59.1,0,0,0,9.61-11.34,227.65,227.65,0,0,1,3.88,24.11M479.11,113.6a141.24,141.24,0,0,0-20.83-4.26,213.32,213.32,0,0,0-25.91-20.16,97.74,97.74,0,0,0-1-11.92c-.09-.52-.27-1.52-.61-2.87a229.82,229.82,0,0,1,48.34,39.21M286.9,32.28a35.52,35.52,0,0,1,8.89-2,254.15,254.15,0,0,1,36.62-1.2c-13.09,3.1-29.18,9.08-42.88,18.06,0,0,33.06-12.36,69.13-14.92l2.16.47c44.67,10,55.61,37.05,57.19,46.77,1.85,11.38.5,35.16.1,41.28q-35.34,4-70.36,10.33a239,239,0,0,0-25.19-5.61c-32.67-5.45-66.56-6-99,1.31q-1.37.3-2.79.66h0c46.82-82.67,56-91.38,66.12-95.13M251.3,50c-2.93,4.37-6.18,9.42-9.81,15.26a216.21,216.21,0,0,0-71.86,42.26c-4.29-1.4-8.64-2.71-12.95-3.86A228,228,0,0,1,251.3,50m-37.42,89.62q3.39-6,6.55-11.62l1.15-.2c2.08-.29,4.32-.62,6.4-.93a323.12,323.12,0,0,1,38.56-2.78,407.47,407.47,0,0,1,80,7.17C312.79,137.4,279.32,145,246.22,154c-22.9,5.52-64,14.71-85.76,5.65-6.29-2.59-11.86-8-11.16-15.33a13.16,13.16,0,0,0,2.62,9.78,21.36,21.36,0,0,0,8.18,6.36c25.13,11.41,75.24-.72,101.75-7.67q49.83-12.86,100.54-21.88c18.45-3.34,37-6.19,55.63-8.71h.11c3.08-.38,64.3-7.44,96.06,26.6,32.83,42.74,19.77,88.61-56.82,94.6-75.86,5.94-206.18-59.26-240.63-60.7,4.92-.62,9.84-1.24,14.75-1.89a41.31,41.31,0,0,1,10.77,0c12.83,1.69,41.44,6.12,64.47,14.46,20.36,7.39,60.5,12.55,86,10.3-.58-.82-12.31-15.59-109.9-32.1h0l-2.37.15c36.55-6,72.85-13.54,108.47-23.79,6.68-2,13.33-4.11,19.92-6.43,3.26-1.14,6.51-2.24,9.84-3.13a124,124,0,0,1,40.94-4.1c17,1.23,34.83,5.72,47.3,18,4.85,4.86,8.89,10.85,10.53,17.59-3-13.93-14.57-24.43-27.14-30.15-12.84-5.79-27.05-7.83-41.05-7.91a124.54,124.54,0,0,0-41.31,7.19c-3.27,1.15-6.57,2.23-9.87,3.29-60.19,18.31-122.46,28.75-184.54,38.51h0c-32.57-.16-80.31-.34-100.18-49.5-20.33-50.3,100.54,6.51,100.54,6.51M113,160a78.63,78.63,0,0,0,8.17,9.31q-4.44,8.43-8.13,17.29a72.09,72.09,0,0,0-11.88-1.6A227.72,227.72,0,0,1,113,160M313,497.68a227,227,0,0,1-144.79-52,83.47,83.47,0,0,0,8.35-8.16,216,216,0,0,0,279.88-6,47.3,47.3,0,0,0,3.2,12.55A227.05,227.05,0,0,1,313,497.68m-73.1-44.89a4.19,4.19,0,0,0,1.55-.36,3,3,0,0,0,1.5-2.21,6.64,6.64,0,0,1-.11-.92c-.22-2.13-4.26-3.9-6-4.59a14.47,14.47,0,0,1-2.16-1.07c-1.84-1.14-3.27-2.72-3.27-4.78a3.76,3.76,0,0,1,0-.58V438a6.32,6.32,0,0,1,.48-2.09,9.13,9.13,0,0,1,3.75-4.19,10.71,10.71,0,0,1,3.71-1c.4,0,.84,0,1.25,0a7.76,7.76,0,0,1,6.28,2.61c.37.4.7.66.7,1.1a1.79,1.79,0,0,1-.07.33,1.07,1.07,0,0,0-.08.29c0,.19.11.26.11.41a.38.38,0,0,1,0,.18c-.33.81-2.5,2.21-3.31,2.61a1,1,0,0,1-.44.07c-.44,0-.66-.29-1-.73a3.57,3.57,0,0,0-2.58-1.65,2.41,2.41,0,0,0-1.06.25,2.76,2.76,0,0,0-1.51,1.44c0,2.24,1.14,2.72,3.24,3.41a11.84,11.84,0,0,1,5.32,3,2.37,2.37,0,0,1,1,.81l.11.18a7.67,7.67,0,0,1,1.51,4.49,8.71,8.71,0,0,1-.4,2.46,9,9,0,0,1-8.2,6.17,12.57,12.57,0,0,1-2.61-.29,8.82,8.82,0,0,1-5.29-3,10.61,10.61,0,0,1-1.54-5.36,2,2,0,0,1,.95-1.44,12.91,12.91,0,0,1,3-.18h.77a6.16,6.16,0,0,1,1,.29h.07c.26.78,0,1.66.3,2.5.07.22.51.92.51,1.07a0,0,0,0,1,0,0h0a4.67,4.67,0,0,0,2.51,1.07m7.15-44.5a7.63,7.63,0,0,1,1.84,4.41v.66a9.49,9.49,0,0,1-2.5,6.28c-2,1.95-3.42,1.87-6,2.24a15.91,15.91,0,0,1-2.72.22c-.22,0-.44,0-.63,0a1,1,0,0,1-.77-.26.62.62,0,0,0-.29-.11c-.08,0-.15,0-.26,0a1.85,1.85,0,0,1-.33-.08h-.11c-.37,0-1.54.11-1.76.11a9.67,9.67,0,0,1-1.36.19.81.81,0,0,1-.33-.07c-.11-.12-.11-.37-.11-.7v-1c0-.63-.12-1.14-.12-1.73a5,5,0,0,1,0-.77c0-.55,0-1.1,0-1.69v-1.69c0-4.45.15-8.93.4-13.38v-.18l-.18-.15a3.57,3.57,0,0,1-.44-2.17v-1.72c0-.26-.08-.59-.08-.89s0-.47.26-.58a19.25,19.25,0,0,1,3.05-.48c1.07,0,2.13-.07,3.2-.07h1a12.54,12.54,0,0,1,4.89,1.1,6.4,6.4,0,0,1,2.28,1.8l.14.15a6.69,6.69,0,0,1,1.29,4.15,9.61,9.61,0,0,1-.59,3.23,7.43,7.43,0,0,1-1.18,2,8.5,8.5,0,0,1,1.29,1.14m3.26-7.72c0-.81.11-1.43.19-2.32a3.09,3.09,0,0,0,0-.51c0-.4,0-.77,0-1.07,0-.73.18-1.25,1.32-1.25.7,0,1.21.11,1.84.11.14,0,.33,0,.51,0,.52,0,1-.15,1.51-.15a1.21,1.21,0,0,1,1.32,1.14c0,.48.07,1,.07,1.54a5.76,5.76,0,0,1-.07,1.11c-.15.92-.18,1.91-.26,2.86-.07,1.55-.11,3.05-.11,4.63a36.18,36.18,0,0,0,.22,4.41v.15c.08.95,0,1.95.19,2.9a2.68,2.68,0,0,0,.73,1.55,3.59,3.59,0,0,0,.33.44,5.08,5.08,0,0,0,1.69.33,2.65,2.65,0,0,0,1.11-.19c.77-.26.44-.26.69-.84.15-.41.33-.77.48-1.14a9.2,9.2,0,0,0,.41-3.16c0-.37.11-.77.11-1.1v-.15a10.2,10.2,0,0,1,0-1.1v-1.14c0-.48,0-1,0-1.44a19.64,19.64,0,0,1-.22-2.57,9.45,9.45,0,0,1,.08-1.06,5.36,5.36,0,0,0,.07-1,6.15,6.15,0,0,0,0-.8,6.69,6.69,0,0,1,0-.77c0-.63,0-1.26,0-1.84,0-.33,0-.63,0-1s-.08-.48-.08-.73a.85.85,0,0,1,.44-.81,3,3,0,0,1,1.47-.3c.44,0,.88,0,1.29,0h.22c.62,0,1.21-.22,1.73-.22s.92.18,1.17,1a11.89,11.89,0,0,1,.3,2.35v.77c0,.74,0,1.44,0,2.17.08,1.7.11,3.42.11,5.11,0,.92,0,1.84,0,2.8a21.05,21.05,0,0,1-.44,3.63,16,16,0,0,1-1,3.27,1.78,1.78,0,0,1-.59.89l-.33.66a8.18,8.18,0,0,1-2.5,2.64,9.37,9.37,0,0,1-5.21,1.51h-.23a7.42,7.42,0,0,1-3.93-1.18,7.15,7.15,0,0,1-1.8-1.69,1.35,1.35,0,0,1-.33-.18,3.16,3.16,0,0,1-.88-2,13.1,13.1,0,0,1-.7-2.79c-.07-.4-.11-.85-.15-1.28,0-.19-.11-.37-.14-.56-.15-.62-.26-1.28-.37-1.91a24.64,24.64,0,0,1-.26-4v-1c0-1.1.15-2.2.15-3.31v-.66c0-.25,0-.51,0-.73m17.95,47.15a1,1,0,0,1-.11.51c-.07,1.26-.14,2.54-.26,3.79,0,.41,0,.81-.07,1.21V456c0,.59-.07.66-.51.88s0,.55-.81,1c-.41,0-.92,0-1.32-.07h-.7a4.88,4.88,0,0,1-1.4-.11c-.55-.18-.92,0-1.17-.52a3.89,3.89,0,0,1-.15-1.36c0-1,.11-2.16.15-2.75s.07-1.32.07-1.91c0-.44,0-.88,0-1.4V449c-1.69,0-3.34,0-5-.11,0,1-.08,2.06-.15,3.09,0,.77,0,1.69,0,2.53v1.44a.83.83,0,0,1-.58.91c-.37.19.18.3-.7.89a1.09,1.09,0,0,1-.26,0c-.4,0-1.14-.07-1.32-.07a10.57,10.57,0,0,1-1.29.07,1.8,1.8,0,0,1-.66-.07c-.44-.15-.77-.07-1.1-.26a1.68,1.68,0,0,1-.48-1.32,7.78,7.78,0,0,1,.26-1.69,13.35,13.35,0,0,0,.25-2.5c0-.63,0-1.29-.07-2.09s0-1.33-.07-1.95c-.08,0-.19-.08-.37-.41-.07-.18-.11-.18-.11-.25a.77.77,0,0,1,0-.26c0-.55.07-1.1.11-1.69v-.37a1.32,1.32,0,0,1,.07-.55,1.87,1.87,0,0,0,.07-.22c-.07-.84-.11-1.69-.11-2.54a10.06,10.06,0,0,1,.11-1.83,9.22,9.22,0,0,0,.11-1.4c0-.26,0-.51,0-.84s0-.45,0-.7c0-.66.07-1.33.07-2v-.26c0-.59-.07-1.18-.07-1.76v-.26c.22-1.18.92-1.36,1.76-1.36.37,0,.74,0,1.11,0,.95,0,1.8-.44,2.42-.44s.92.26,1.1,1.25a19.72,19.72,0,0,1,.26,2.61c0,.22,0,.41,0,.59,0,.55,0,1.1,0,1.65v1.69c0,1.58,0,3.13,0,4.71.74-.08,1.51-.11,2.24-.19a19,19,0,0,1,2-.11h.44c0-.33,0-.7,0-1a14.21,14.21,0,0,1,.19-2.24,12,12,0,0,0,.14-2.24v-.37c0-.8.08-1.54.11-2.35v-.33c0-.55,0-1.06,0-1.61v-.34a1.51,1.51,0,0,1,1.72-1.32c.37,0,.77,0,1.18.07.95,0,1.8-.4,2.42-.4s.92.29,1.11,1.29c.07.81.18,1.69.18,2.5,0,.25,0,.47,0,.69-.14,1.11-.11,2.25-.14,3.38-.08,2.91-.19,5.85-.33,8.75,0,.11,0,.22,0,.33m17.69-36.24c.22.41.4.81.59,1.22a10.08,10.08,0,0,1,.8,2.53c0,.15,0,.3,0,.44s0,.29,0,.44c0,1,.22,1.95.29,2.94,0,.11,0,.22,0,.3.07,1,.11.8.73,1.47a.38.38,0,0,1,.15.29c0,.44-1.14.55-1.43.62a1.49,1.49,0,0,0-.41.08,15.74,15.74,0,0,1-3.41.48h-.26c-1.07,0-1.73-1.29-1.84-2.21-.18-2,0-4.15-.44-6.1-.81-2.9-2-1.73-2.68-2.31a11.39,11.39,0,0,1-.11,1.54,7.32,7.32,0,0,0-.15,1.43c0,.22,0,.48,0,.77a2.27,2.27,0,0,1,0,.45c0,.8-.11,1.61-.11,2.42v.29c0,.45.08,1.18.08,1.73a1.79,1.79,0,0,1,0,.48c-.11.92-.59,1.1-1.21,1.1a11,11,0,0,1-1.14-.11,8.19,8.19,0,0,0-1,0,9.43,9.43,0,0,0-1.4.11,6.89,6.89,0,0,1-1.1.15c-.41,0-.63-.22-.66-1.06s-.08-1.62-.08-2.39c0-.3,0-.55,0-.81.07-1.1,0-2.24.07-3.38,0-4.45.11-8.93.37-13.38a.3.3,0,0,0,0-.18,2.11,2.11,0,0,1-.74-1.84,8.5,8.5,0,0,0-.18-1.94,9.42,9.42,0,0,1-.26-1.33c0-.37.22-.59,1.07-.62A9,9,0,0,0,273,395a8.11,8.11,0,0,1,1.39-.08l2.43,0a23,23,0,0,1,2.42.11c2.5.29,3.75.51,5.7,2.17a6.83,6.83,0,0,1,1.8,2.86,7.64,7.64,0,0,1,.4,2.5c0,.33,0,.66,0,1a9.11,9.11,0,0,1-1.25,3.67,9,9,0,0,1-1.66,1.91,8.79,8.79,0,0,1,1.66,2.39m4.36-11.79a1.3,1.3,0,0,1,.19-.67,5.65,5.65,0,0,1,1.61-2c.19-.12.33-.19.48-.3,0,0,0,0,0-.07a2.76,2.76,0,0,1,.59-.33,10,10,0,0,1,1.13-.59l.11,0a10.18,10.18,0,0,1,3.64-.66,15.43,15.43,0,0,1,2.17.15,7.24,7.24,0,0,1,3.2,1.28,6.17,6.17,0,0,1,1.91,2.5v0a10.63,10.63,0,0,1,.73,2.83c0,.11,0,.25,0,.37a.58.58,0,0,1-.4.62c-.26.08-.3.15-.3.22v.08c0,.07,0,.18-.33.36s-.22.15-.33.15h-.18c-.56,0-1.14,0-1.69,0-.19,0-.45,0-.63,0a.93.93,0,0,1-.33,0,1.49,1.49,0,0,0-.55-.07,2.17,2.17,0,0,1-.44,0l-.15-.12,0,0a1.21,1.21,0,0,1-.36-.85,4.65,4.65,0,0,1,.07-.66v-.26a2,2,0,0,0-1.65-2.05h-.11a2.88,2.88,0,0,0-1.91.95,8.39,8.39,0,0,0-1.18,3.9c-.07.51-.33,3.12-.33,3.93v.22a4,4,0,0,1,.07.85,6.54,6.54,0,0,1,0,.73,9.63,9.63,0,0,0,.11,1.54,4.9,4.9,0,0,1,.07.67,8.53,8.53,0,0,0,.92,3,2.26,2.26,0,0,0,2,1.22h.19a3.17,3.17,0,0,0,.95-.3c1.32-.73,1.66-2,1.91-3.41.11-.55.22-.85.22-1s-.07-.18-.29-.18-.29,0-.52,0-.36,0-.55,0c-.4,0-.8,0-1.17,0a5.78,5.78,0,0,0-.74,0,2.51,2.51,0,0,1-.51,0c-.66,0-.3-.37-.63-.48h0c-.44,0-.48-1.94-.48-2.64v-.22c0-1.29.11-1.47.66-1.47.22,0,.55,0,1,0s1.07,0,1.54,0h1.55c.66,0,1.17-.19,1.72-.19a1.58,1.58,0,0,1,.59.08,2.38,2.38,0,0,0,.44,0,2.54,2.54,0,0,0,.44,0H305a7.51,7.51,0,0,1,.78,0c.22,0,.58-.11.84-.11h.07c.41.19.52.77.52,1.36a5.49,5.49,0,0,1,0,.81,2.33,2.33,0,0,1,.19.85v1a11.46,11.46,0,0,1-.26,2.75,18.29,18.29,0,0,1-1,3.05,9.55,9.55,0,0,1-.55,1.11,8.52,8.52,0,0,1-2.5,2.64,9.37,9.37,0,0,1-5.21,1.51h-.23a7.61,7.61,0,0,1-4-1.18,8.64,8.64,0,0,1-1.51-1.36h-.15c-1-.14-1.32-1.5-1.5-2.31-.37-1.51-.85-2.83-1.22-4.26a23.76,23.76,0,0,1-.44-4.12c0-.26,0-.51,0-.74.07-.95.15-1.76.18-2.75a15,15,0,0,1,.74-4,4.38,4.38,0,0,1,.48-1.14,1,1,0,0,1-.08-.33m-1.08,31.46h.22a16.59,16.59,0,0,1,1.73-.19.93.93,0,0,1,.84.33c0,.11.74,3.13.77,3.39s.11.77.19,1.17c.73,3.64,1.39,7.17,2.35,10.77.15.55.22,1.1.33,1.1s.11-.18.26-.62a58.81,58.81,0,0,0,1.47-6.51c.18-1.21.47-2.31.73-3.45.22-.88.3-1.77.55-2.61.15-.52.15-.88.26-1.4a15.22,15.22,0,0,1,.37-1.73.89.89,0,0,1,.88-.4c.37,0,.73.07,1,.07h.15a3.93,3.93,0,0,1,1-.11,1.3,1.3,0,0,1,.67.11c.47.22.62,1.77.69,2.25.11.91.37,1.58.52,2.42.4,2.54.55,5,1.06,7.54.3,1.28.81,2.53,1.07,3.71,0,.14.18,1.21.37,1.21,0,0,0,0,0,0s1.18-5.92,1.36-6.61c.7-3.2,1.44-6.54,2.24-9.7a1.28,1.28,0,0,1,1.44-1c.59,0,1.28.14,1.87.14h.11c.48,0,1.07-.07,1.58-.07s1.21.15,1.21.88a2.08,2.08,0,0,1,0,.41,56.09,56.09,0,0,0-1.88,7.75,27.09,27.09,0,0,1-1,4.92c-.51,1.77-.95,3.57-1.43,5.37a19.24,19.24,0,0,0-.81,4.52c0,.88,0,2.35-.84,2.9a.45.45,0,0,1-.22,0h-.44a1.3,1.3,0,0,0-.37,0,.56.56,0,0,1-.22,0,4.56,4.56,0,0,1-.7-.14c-.55-.08-1.14-.15-1.69-.19l-.7.33a.69.69,0,0,1-.26.11l-.29-.07c-.84-.33-.22-.66-.88-.66s-.66-.7-.77-1.14l-.22-.77c-.81-3-1.73-5.88-2.5-8.89-.37,1.43-.74,2.86-1.18,4.26-.55,1.84-1,3.56-1.5,5.4-.15.44-.3,1.14-.78,1.14-.69,0-.07.33-.91.66l-.26.07c-.08,0-.11,0-.3-.11l-.69-.33a3.83,3.83,0,0,0-.67.08,15.77,15.77,0,0,1-1.61.22c-.11,0-.19,0-.22,0a1.24,1.24,0,0,0-.48-.07h-.07c-.34,0-.48-.08-.78-1.44-.11-.59-.25-1.21-.4-1.83-.77-3.09-1.62-6.44-2.5-9.49-.18-.69-.37-1.36-.55-2.05-.37-1.51-.37-2.83-.74-4.23-.58-2.09-1-4-1.5-6.06a4.33,4.33,0,0,1-.08-.63c0-.73.45-.95,1-.95s1.47.22,2.21.22m20.29-34.33v-.11c0-.77.33-.59.33-.7a.17.17,0,0,0,0-.11.8.8,0,0,1-.08-.33c0-.18.08-.33.3-.33h0a8.92,8.92,0,0,0,1.36.07l.11,0c.85,0,1.4-.15,2.1-.15a4.67,4.67,0,0,1,1,.07c.41.08.88,0,1.18.15,0,0,1.65-.15,1.84-.15h.25c.48,0,.7.11,1.11.11a2.43,2.43,0,0,0,.44,0h.33a6.69,6.69,0,0,1,.77,0c.26,0,.62-.11.88-.11h.07a1.4,1.4,0,0,1,.56,1.29,10,10,0,0,1-.12,1.18v.14c0,.41.08,1.1.08,1.73a2.06,2.06,0,0,1-.3,1.32,3.18,3.18,0,0,1-1.47.33,2.91,2.91,0,0,0-.51,0,5.62,5.62,0,0,0-.73,0c-1,0-1.92.08-2.87.08h-.7c0,1.17,0,2.35,0,3.56v.52c0,.22,0,.29.15.29l.55-.07a4.84,4.84,0,0,1,.74,0h.7c.62,0,.88-.15,1.47-.15h.36c.37,0,.66-.11,1-.11s.51.66.51,1.29-.07,1.06-.07,1.28V408c0,.48.07,1.11.07,1.7s-.07,1.17-.51,1.39h-.11a3.18,3.18,0,0,1-1,.19h-.41a3.4,3.4,0,0,0-.51,0,13.41,13.41,0,0,1-1.76.11c-.33,0-.7,0-1.07,0v.47c0,.41,0,.81-.07,1.25a5.77,5.77,0,0,0,0,.81c0,.63.07,1.18.07,1.91,0,.18,0,.33,0,.4s0,.12.14.12h.08c.92-.08,1.76,0,2.64-.08s1.33-.26,2.1-.29c.4,0,.88-.11,1.17-.11.44.18.52.77.52,1.32s-.08,1-.08,1.25v.11c0,.48.08,1.1.08,1.65s-.11,1.22-.55,1.44a3.53,3.53,0,0,1-1.11.22h-.11a1.33,1.33,0,0,0-.4,0c-.29,0-.59,0-.84,0-1.11,0-2.17.11-3.24.11-.66,0-1.28,0-1.91-.08h-1.1a6.48,6.48,0,0,1-.7,0h-.15c-.58,0-1.8.15-2.27.15h-.15c-.41-.08-.44-.74-.44-1.25v-2.06a9,9,0,0,1,0-.92c.08-1.1,0-2.24.08-3.38,0-4.45.11-8.93.37-13.38.07-1.1.07-2.35.07-3.45,0-.22,0-.48,0-.7m29.21,14.66c.22.41.4.81.59,1.22a10.08,10.08,0,0,1,.8,2.53c0,.15,0,.3,0,.44s0,.29,0,.44c0,1,.22,1.95.29,2.94,0,.11,0,.22,0,.3.07,1,.11.8.73,1.47a.38.38,0,0,1,.15.29c0,.44-1.14.55-1.43.62a1.49,1.49,0,0,0-.41.08,15.65,15.65,0,0,1-3.41.48h-.26c-1.07,0-1.73-1.29-1.84-2.21-.18-2,0-4.15-.44-6.1-.81-2.9-2-1.73-2.68-2.31a11.39,11.39,0,0,1-.11,1.54,7.32,7.32,0,0,0-.15,1.43c0,.22,0,.48,0,.77a2.27,2.27,0,0,1,0,.45c0,.8-.11,1.61-.11,2.42v.29c0,.45.08,1.18.08,1.73a1.79,1.79,0,0,1,0,.48c-.11.92-.59,1.1-1.21,1.1a11,11,0,0,1-1.14-.11,8.19,8.19,0,0,0-1,0,9.43,9.43,0,0,0-1.4.11,6.89,6.89,0,0,1-1.1.15c-.41,0-.63-.22-.66-1.06s-.08-1.62-.08-2.39c0-.3,0-.55,0-.81.07-1.1,0-2.24.07-3.38,0-4.45.11-8.93.37-13.38a.3.3,0,0,0,0-.18,2.11,2.11,0,0,1-.74-1.84,8.5,8.5,0,0,0-.18-1.94,9.42,9.42,0,0,1-.26-1.33c0-.37.22-.59,1.07-.62a9,9,0,0,0,1.36-.11,8.11,8.11,0,0,1,1.39-.08l2.43,0a23,23,0,0,1,2.42.11c2.5.29,3.75.51,5.7,2.17a6.83,6.83,0,0,1,1.8,2.86,7.64,7.64,0,0,1,.4,2.5c0,.33,0,.66,0,1a9.11,9.11,0,0,1-1.25,3.67,9.27,9.27,0,0,1-1.65,1.91,9,9,0,0,1,1.65,2.39m12.19,5.63a4,4,0,0,0,1.54-.37,2.92,2.92,0,0,0,1.51-2.21,6.45,6.45,0,0,1-.11-.92c-.22-2.13-4.26-3.89-6-4.59a14.11,14.11,0,0,1-2.17-1.07c-1.84-1.13-3.27-2.71-3.27-4.77a2.88,2.88,0,0,1,0-.59v-.26a6.13,6.13,0,0,1,.48-2.09,9.16,9.16,0,0,1,3.74-4.19,11,11,0,0,1,3.71-1c.41,0,.85,0,1.25,0a7.78,7.78,0,0,1,6.29,2.61c.37.4.7.66.7,1.1a1.3,1.3,0,0,1-.08.33,1.41,1.41,0,0,0-.07.3c0,.18.11.25.11.4a.33.33,0,0,1,0,.19c-.33.8-2.5,2.2-3.3,2.6a.9.9,0,0,1-.45.08c-.44,0-.66-.3-1-.74a3.55,3.55,0,0,0-2.57-1.65,2.45,2.45,0,0,0-1.07.25,2.74,2.74,0,0,0-1.5,1.44c0,2.24,1.14,2.72,3.23,3.42a11.91,11.91,0,0,1,5.33,3,2.51,2.51,0,0,1,1,.81l.11.19a7.64,7.64,0,0,1,1.51,4.48,8.34,8.34,0,0,1-.41,2.46,8.94,8.94,0,0,1-8.19,6.17,11.93,11.93,0,0,1-2.61-.29,8.79,8.79,0,0,1-5.29-3,10.72,10.72,0,0,1-1.55-5.36,2,2,0,0,1,1-1.43,12.2,12.2,0,0,1,3-.19h.77a5.57,5.57,0,0,1,1,.3h.08c.26.77,0,1.65.29,2.5.08.22.52.92.52,1.06a0,0,0,0,1,0,0h0a4.73,4.73,0,0,0,2.52,1.07m12.32,25.58c.11.25.19.51.3.77a32,32,0,0,1,.95,3.86l.55-2c.37-1.13.59-2.35,1-3.45.62-1.87,1.32-3.71,1.94-5.62.3-.81.48-1.62.7-2.46l.22-.77a2.5,2.5,0,0,1,.22-.67c.19-.44.3-.4.66-.51s0-.26.37-.52a.5.5,0,0,1,.33-.14,1.33,1.33,0,0,1,.3.07.65.65,0,0,1,.47-.4c.78.07,1.4.07,2.17.11h.44a2.28,2.28,0,0,1,1,.14c.52.3.81.11,1.1.33a1.85,1.85,0,0,1,.52,1.4,6.73,6.73,0,0,1-.08.85,9.62,9.62,0,0,0-.11,1.76v.88c-.07.92-.18,1.47-.18,2.39V439c.11,1.84.22,3.71.37,5.55.07,1,.15,2,.15,3a9.94,9.94,0,0,1-.08,1.54,7.74,7.74,0,0,0-.07,1.21,9.49,9.49,0,0,0,0,1v.55c0,.74,0,1.44,0,2.17s.11,1.36.11,2v.26a1.46,1.46,0,0,1-1.69,1.36c-.33,0-.74,0-1.14-.07-1,0-1.8.4-2.43.4s-.91-.29-1.13-1.28a15.56,15.56,0,0,1-.26-2.65v-4.63c0-.73,0-1.47,0-2.2v-.3c0-.14,0-.26,0-.26a5.94,5.94,0,0,0-.92,1.81c-.88,2.35-1.32,4.11-2.83,6.21-.33.4-.59.58-.88.58a2.29,2.29,0,0,1-.77-.18h-.11c-.22,0-.3.22-.78.22a3.81,3.81,0,0,1-.44-.07c-.51-.19-.77-.11-1.21-.48-.51-.55-.26-.74-.48-1.18a7.57,7.57,0,0,1-1-2.42,23.41,23.41,0,0,0-.77-2.61c-.15-.37-.44-1.36-.59-1.65a3.69,3.69,0,0,0-.07.88c0,1.17.11,2.39.11,3.6,0,.81-.08,1.65-.11,2.5,0,.66.07,1.28.07,1.91v.33c-.22,1.17-.88,1.36-1.76,1.36a11.06,11.06,0,0,1-1.11,0c-.95,0-1.8.44-2.42.44s-.92-.29-1.1-1.25a16.87,16.87,0,0,1-.22-2.42,6.52,6.52,0,0,1,0-.77c.08-1.1,0-2.25.08-3.38,0-4.45.11-8.93.36-13.38.08-1.21,0-2.39.08-3.6,0-.37,0-1.1.4-1.32.22-.11.29-.19.29-.22s-.07-.15-.07-.23a.7.7,0,0,1,.07-.22c.12-.18.3-.4.52-.4h0c.77.07,1.54.07,2.35.11h.55a2.29,2.29,0,0,1,.81.18.93.93,0,0,0,.33,0h.33c.26,0,.48.07.55.55a.52.52,0,0,1,.4.26,26.93,26.93,0,0,1,.78,3.23,30.74,30.74,0,0,0,1,3.13c.55,1.43,1.06,2.94,1.69,4.33a2,2,0,0,0,.08.23.08.08,0,0,1,0,0m12.4-41.13c0-3.53,3.16-6.43,7.16-6.43s7.13,2.76,7.13,6.39c0,2.83-1.76,4.38-5.77,6.21,1.1,1.29,2.35,2.69,3.9,4.34a24.61,24.61,0,0,0,2.46-4.63l3.89,1.84a37.55,37.55,0,0,1-3.49,5.84l4,4.19-4.41,2-2.68-2.79a11.34,11.34,0,0,1-7.35,2.65c-4.85,0-8.49-2.72-8.49-7.32,0-3.3,1.62-5.4,5.48-7.12a8.26,8.26,0,0,1-1.8-5.15m19.78,52.37a1,1,0,0,0,.08.37,14.5,14.5,0,0,1,.4,2.13,3.66,3.66,0,0,1,.11.7.54.54,0,0,1-.15.44h-.11c-.07,0-.18,0-.25,0s-.08,0-.08,0-.18.07-.33.07h-.37c-.36,0-.62-.07-.95-.07h-.37c-.55,0-1,.15-1.51.15a2.4,2.4,0,0,1-.73-.08,2.45,2.45,0,0,1-.59-.07c-.22-.11-.26-.92-.33-1.18-.07-.55-.11-1-.18-1.54s0-.44-.37-.44c-.74,0-1.29.11-2,.11h-.26c-1.07,0-2.09.15-3.12.15h-.52l0,.18c-.15.55-.15,1.84-.34,2.24s-.62.44-1.17.44-1.29-.11-1.66-.11h-.11c-.73,0-1.43.19-1.94.19s-1-.22-1-1.11a3,3,0,0,1,0-.58c.19-1.11.3-2.17.55-3.27s.56-2.28.81-3.42c.63-2.9,1.32-5.88,2.13-8.75.41-1.54.85-3.05,1.33-4.59.33-1.14.58-2.35.91-3.53.08-.29.19-1.07.63-1.07h0a1.26,1.26,0,0,1,.22,0c.07,0,0,0,.07-.22s.22-.15.41-.15a1.72,1.72,0,0,1,.18,0h.51a6,6,0,0,1,.81,0h.4a4.05,4.05,0,0,0,.7-.07,2.6,2.6,0,0,1,.52,0h.51c.66,0,1.14-.25,1.51-.25s.66.22.95,1a21.33,21.33,0,0,1,.89,3.05,30.58,30.58,0,0,0,.66,3.3c.95,4.38,1.84,8.79,2.53,13.19.19.92.37,1.84.59,2.76m-53.19-23.3c2.5.3,3.75.52,5.7,2.17a6.86,6.86,0,0,1,1.8,2.87,7.64,7.64,0,0,1,.4,2.5c0,.33,0,.66,0,1a9.11,9.11,0,0,1-1.25,3.67,9,9,0,0,1-1.66,1.91,8.64,8.64,0,0,1,1.66,2.39c.22.4.4.81.59,1.21a10.28,10.28,0,0,1,.8,2.54c0,.14,0,.29,0,.44s0,.29,0,.44c0,1,.22,1.95.29,2.94,0,.11,0,.22,0,.29.07,1,.11.81.73,1.47a.4.4,0,0,1,.15.3c0,.44-1.14.55-1.43.62a1.49,1.49,0,0,0-.41.08,16.35,16.35,0,0,1-3.41.47H346c-1.07,0-1.73-1.28-1.84-2.2-.18-2,0-4.15-.44-6.1-.81-2.9-2-1.73-2.68-2.32a11.54,11.54,0,0,1-.11,1.55,7.32,7.32,0,0,0-.15,1.43c0,.22,0,.48,0,.77a2.17,2.17,0,0,1,0,.44c0,.81-.11,1.62-.11,2.43v.29c0,.44.08,1.18.08,1.73a1.72,1.72,0,0,1,0,.47c-.11.93-.59,1.11-1.21,1.11a10.73,10.73,0,0,1-1.14-.11,8.19,8.19,0,0,0-1,0,9.43,9.43,0,0,0-1.4.11,6.89,6.89,0,0,1-1.1.15c-.41,0-.63-.22-.67-1.07s-.07-1.61-.07-2.39c0-.29,0-.55,0-.8.07-1.1,0-2.25.07-3.38,0-4.45.11-8.93.37-13.38a.3.3,0,0,0,0-.18,2.12,2.12,0,0,1-.74-1.84,9.2,9.2,0,0,0-.18-1.95,9.08,9.08,0,0,1-.26-1.32c0-.37.22-.59,1.07-.63a7.88,7.88,0,0,0,1.36-.11,9.18,9.18,0,0,1,1.39-.07c.77,0,1.62,0,2.43,0s1.69,0,2.42.11m-18.77.33a4.15,4.15,0,0,0,.7-.07,2.6,2.6,0,0,1,.52,0h.51c.66,0,1.14-.25,1.51-.25s.66.22,1,1a21.29,21.29,0,0,1,.88,3.05c.15,1.13.41,2.2.66,3.3,1,4.38,1.84,8.79,2.54,13.19.18.92.37,1.84.59,2.76a1.28,1.28,0,0,0,.07.37,14.54,14.54,0,0,1,.41,2.13,4.67,4.67,0,0,1,.11.7.54.54,0,0,1-.15.44h-.11c-.07,0-.18,0-.26,0s-.07,0-.07,0-.19.07-.33.07h-.37c-.37,0-.62-.07-1-.07h-.36c-.55,0-1,.15-1.51.15a74.31,74.31,0,0,1-1.32-.15c-.22-.11-.26-.92-.33-1.18-.08-.55-.11-1-.19-1.54s0-.44-.36-.44c-.74,0-1.29.11-2,.11h-.26c-1.07,0-2.1.15-3.13.15h-.51l0,.18c-.14.55-.14,1.84-.33,2.24s-.62.44-1.17.44-1.29-.11-1.66-.11h-.11c-.73,0-1.43.19-1.94.19s-1-.22-1-1.11a3,3,0,0,1,0-.58c.18-1.11.29-2.17.55-3.27s.55-2.28.81-3.42c.62-2.9,1.32-5.88,2.13-8.75.41-1.54.85-3.05,1.32-4.59.33-1.14.59-2.35.92-3.53.08-.29.19-1.07.63-1.07h0a1.09,1.09,0,0,1,.22,0c.08,0,0,0,.08-.22s.22-.15.4-.15a1.49,1.49,0,0,1,.19,0h.51a6,6,0,0,1,.81,0Zm-52.6,18.27c.63-2.9,1.32-5.88,2.13-8.75.41-1.54.85-3.05,1.33-4.59.33-1.14.58-2.35.91-3.53.08-.29.19-1.07.63-1.07h0a1.26,1.26,0,0,1,.22,0c.07,0,0,0,.07-.22s.22-.15.4-.15a1.49,1.49,0,0,1,.19,0h.51a6,6,0,0,1,.81,0h.41a4,4,0,0,0,.69-.07,2.6,2.6,0,0,1,.52,0h.51c.66,0,1.14-.25,1.51-.25s.66.22.95,1a21.33,21.33,0,0,1,.89,3.05,30.58,30.58,0,0,0,.66,3.3c.95,4.38,1.84,8.79,2.53,13.19.19.92.37,1.84.59,2.76a1.28,1.28,0,0,0,.07.37,14.54,14.54,0,0,1,.41,2.13,3.66,3.66,0,0,1,.11.7.54.54,0,0,1-.15.44h-.11c-.07,0-.18,0-.26,0s-.07,0-.07,0-.18.07-.33.07h-.37c-.36,0-.62-.07-.95-.07h-.37c-.55,0-1,.15-1.51.15a2.4,2.4,0,0,1-.73-.08,2.45,2.45,0,0,1-.59-.07c-.22-.11-.26-.92-.33-1.18-.07-.55-.11-1-.18-1.54s0-.44-.37-.44c-.74,0-1.29.11-2,.11h-.26c-1.06,0-2.09.15-3.12.15h-.52l0,.18c-.15.55-.15,1.84-.33,2.24s-.63.44-1.18.44-1.29-.11-1.65-.11h-.11c-.74,0-1.44.19-1.95.19s-1-.22-1-1.11a4,4,0,0,1,0-.58c.19-1.11.3-2.17.55-3.27s.55-2.28.81-3.42M602.93,318.82c-1.06,7.08-4.85,17.57-11.23,31.5q-3.33,7.44-5.24,13-7.38,20.21-16.09,42.11c9.25,2,16.7,5.63,22.31,10.87s7.92,10.74,7,16.45-6.51,10-16.78,13.28c-.06-1-.13-2-.19-2.95a30.08,30.08,0,0,0-1.68-7.35,39.73,39.73,0,0,0-4.92-9.47,36.8,36.8,0,0,0-9.92-9.54c-9,18.2-17.12,29.67-24.66,34.4s-15,7-22.53,6.94a55.68,55.68,0,0,1-20.44-3.9,32,32,0,0,1-14.88-12.35c-3.79-5.75-5.46-11.42-4.95-17a28.82,28.82,0,0,1,4.05-11.85c6.17-8.41,15.23-13.23,27.12-14.31a154.5,154.5,0,0,1,35.11.54l2.13.26q5-11.85,9.34-23.55c0-.14,0-.28,0-.41q-2.47,2.18-5.42,4.71a51.15,51.15,0,0,1-12.52,7.69,21.52,21.52,0,0,1-10.39,1.58,19.29,19.29,0,0,1-11.73-5.68,15.84,15.84,0,0,1-4.61-9.7,73.61,73.61,0,0,1-7.61,6.12c-6.19,3.93-11.19,5.73-15,5.37q-6.64-.63-9.43-5.84a31.17,31.17,0,0,1-5.59-13.12q-7.69,10.94-17,14.35a14.79,14.79,0,0,1-6.55,1q-8.37-.61-15.16-9a35.49,35.49,0,0,1-7.95-19.11,60,60,0,0,1,2.12-22.4c.24-.88.53-1.8.85-2.73a47.83,47.83,0,0,1-6.12,0q-10.08,21.12-24,35.54-7.73,7.71-14.1,11.18a20.43,20.43,0,0,1-10.86,2.51l-4.08-.34c-12-2.55-19.32-8.53-22.05-18.08-6.5,7.18-12.24,12.27-17.29,15.25a22.27,22.27,0,0,1-9.92,2.41,21.12,21.12,0,0,1-11.94-3.41,16,16,0,0,1-6.74-9.16q-1.67-5.76-.75-14.95c.33-3.22,2-11.7,5-25.31a48.27,48.27,0,0,1-9,3.36,71,71,0,0,1-9.71,32.1c-5.8,10-14.93,16.12-27.48,18.55l-4.08.33c-9.88.31-18.06-2.9-24.64-9.71a40.25,40.25,0,0,1-4.48-5.5,60.37,60.37,0,0,1-12.4,11.81c-5.13,3.72-10,5.72-14.76,6-5,.31-9.79-1.51-14.39-5.47-7.66-6.5-12.09-16.92-13.18-31.33-.77-10.28.75-24.06,4.77-41.31A169.87,169.87,0,0,0,146.14,301a361.06,361.06,0,0,1-8.53,46.16c-6.7,27.3-16.81,45-30.64,53.39-6.72,4.09-13.52,5.84-20.49,5.26a19.51,19.51,0,0,1-15.84-9.6,51.65,51.65,0,0,1-7-20.4,24.45,24.45,0,0,0,10.65.88c3.74-.49,8.4-3.06,14.06-7.7s11.23-12.43,16.81-23.36A167.48,167.48,0,0,0,118.34,310q6.69-4,13.44-8c-23.78,3.65-42.52,11.81-56,24S54.27,350,51.28,360.71s-3.56,20.35-1.84,28.72a43.15,43.15,0,0,0,12.5,22.3c6.59,6.51,15.52,11.33,26.79,14.56s22,4.06,32.16,2.48,18.73-4.5,25.61-8.81,11.73-9.75,14.51-16.41,3.87-11.88,3.2-15.69-1.93-6.47-3.79-8c-4-3.39-8.46-3.8-13.22-1.23a14.74,14.74,0,0,0-8.1,11.64c-3.09-2.19-4.54-5.5-4.32-9.95s2.67-8.28,7.39-11.48a19.92,19.92,0,0,1,15.88-3q8.77,1.86,12.75,8.39a25.6,25.6,0,0,1,4,13.14c0,4.41-1.11,9.95-3.43,16.62-10.54,23.75-28.9,36.73-55.73,39.71-26.86,4.12-48.28.32-64.93-12S24.66,403,22.94,382s2.18-39.18,12-54.34a97.66,97.66,0,0,1,40.27-35.13,170.92,170.92,0,0,1,47.22-13.78q0-4.35-.34-8A45.17,45.17,0,0,0,114.05,249c-4.63-6.65-11.14-9.89-19.47-9.66s-14.39,3-18.11,8.33-4,12.21-1,20.7l-2,.45a22.73,22.73,0,0,1-18.09-4.44c-5.42-4.07-8-10.66-7.56-19.81s4.74-17.44,13.07-24.81,19.67-11.48,33.87-12.2,27.32,4.3,39.1,15c8.54,7.8,13.42,19.75,14.77,35.79a130.19,130.19,0,0,1,.16,18A228.78,228.78,0,0,1,184,277.54a219.77,219.77,0,0,0,5.47-35.93,62.89,62.89,0,0,0,0-7.65c-.5-8-2.48-14.8-6-20.49a63.49,63.49,0,0,1,12.35-3.87,40.05,40.05,0,0,1,12-.57,19.19,19.19,0,0,1,11.07,5.12q5,4.51,5.46,14.41c.4,8.66-1.28,19.68-4.91,33.08l-.9,5q-3.6,15.06-7.07,30.12c-4.95,19.42-7.12,32.16-6.77,38.2.41,7,2.51,10.39,6.3,10.18,1.9-.1,5.07-2.2,9.56-6.28.66-.6,1.31-1.25,2-1.93a51.29,51.29,0,0,1,4.13-16.24q4.74-10.44,9.31-13.94a29.11,29.11,0,0,1,5.33-18.49c3.86-5.44,10.23-9,19.11-10.64a45.77,45.77,0,0,1,6.11-.58c11-.27,19.17,3.53,24.3,11.31s7.85,17,8.23,27.77c4.47-1.07,8.69-4.13,12.69-9.08,2.19-9.25,4.78-19.89,7.84-32h2.95a38.44,38.44,0,0,1,14.27,2.58c4.66,2.12,6.95,5.19,6.89,9.17,0,1-3.18,11.85-9.24,32.7s-6.73,31.66-2.39,32.38q3,0,9.68-6.49a45.34,45.34,0,0,0,6-7.34c2.05-16.88,7.78-37.5,17.62-61.75,12,.31,18.31,4.76,19.06,13.18q-.27,7.43-4.23,18.44-1,2.24-1.95,4.89a133.88,133.88,0,0,0-7.91,26.59c-.12,1.72-.24,3.43-.37,5.15q-.16,6.19,1.68,9.75a5.53,5.53,0,0,0,4.26,3.13c1.88.27,4.42-1.16,7.67-4.28s7.52-9.45,12.92-19a119.81,119.81,0,0,0,6.6-14c-3.95-4.31-6.14-8.95-6.52-13.92,0-1.38,0-2.76-.05-4.13a32.83,32.83,0,0,1,2.37-10.64,31.58,31.58,0,0,1,4.79-8.67,17.63,17.63,0,0,1,12.69-6.62,19.27,19.27,0,0,1,12.56,3.17q5.13,3.62,6.94,11a19.27,19.27,0,0,1,.16,4.56c-.29,4.67-1.88,10.77-4.72,18.31a30.23,30.23,0,0,0,7.17-1.25c1.89-3.25,4-6.66,6.46-10.28,8.08-12,18.15-18.25,30-18.66,9.56.1,15.56,2.72,18,7.78,5.83-15.77,10.13-26,12.74-30.72l3-.12q2.76.06,6.89.48a49.68,49.68,0,0,1,7.67,1.83,11.85,11.85,0,0,1,5.74,3.63,6.89,6.89,0,0,1,1.61,5.26c-.13.54-.27,1.08-.4,1.62q-9.32,21.81-16,38.13t-10.37,26q-3.63,9.71-3.42,14.39c.14,3.12.52,5.16,1.16,6.12a3.09,3.09,0,0,0,2.26,1.58c2,.48,4.83-.79,8.53-3.79a25.77,25.77,0,0,0,1.95-1.8c1.91-7.46,4.9-16.86,9.05-28.25Q530,307,536.9,288.85l2.93.34a38.29,38.29,0,0,1,13.91,4.16q6.6,3.93,5.84,9.88a11.6,11.6,0,0,1-.84,3c-5.47,13.31-9.18,22.84-11.23,28.55q-2.79,7.24-5.55,14.5c-3.5,10.66-3.83,16-1.06,16.08,2,.25,5.47-1.55,10.37-5.37a81.6,81.6,0,0,0,23.08-33c4.73-12.68,8.46-22.51,11.12-29.5l4.3.4c6.9,1,11.08,3.76,12.54,8.29a28,28,0,0,1,.62,12.61"/><path class="cls-1" d="M385.25,401.56a2.41,2.41,0,0,0-2.43-2.57,2.55,2.55,0,0,0-2.64,2.57c0,1.18.59,2.13,1.62,3.42,2.46-1,3.45-1.76,3.45-3.42"/><path class="cls-1" d="M333.86,401.23a5.51,5.51,0,0,0-3.05-.77h-.33v.73c0,.59,0,1.18,0,1.95,0,1.14.07,2.32.15,3.45a5.59,5.59,0,0,0,2.79-.84,3.63,3.63,0,0,0,1.18-2.76,2,2,0,0,0-.78-1.76"/><path class="cls-1" d="M238.29,410.45c0,.74,0,1.44,0,2.17v4.23c.33,0,.66,0,1,0,2.05,0,3.38-.95,3.45-3.08v-.3c0-2.75-2-3.05-4.41-3.05"/><path class="cls-1" d="M281.08,401.23a5.51,5.51,0,0,0-3.05-.77h-.33v.73c0,.59,0,1.18,0,1.95,0,1.14.07,2.32.15,3.45a5.59,5.59,0,0,0,2.79-.84,3.63,3.63,0,0,0,1.18-2.76,2,2,0,0,0-.78-1.76"/><path class="cls-1" d="M240.75,405.68a2.41,2.41,0,0,0,.81-.81,3.82,3.82,0,0,0,.52-2,3,3,0,0,0-.55-1.87,2.82,2.82,0,0,0-2.21-.85,6.29,6.29,0,0,0-1.14.11,15.1,15.1,0,0,1,.08,1.92c0,1.21-.08,2.46-.11,3.56,0,.22-.08.44-.08.55s0,.15.11.15a.26.26,0,0,0,.15,0,14.66,14.66,0,0,0,2.42-.73"/><path class="cls-1" d="M269.65,296l-1.8-.17a10.24,10.24,0,0,0-8.44,3.53,10.37,10.37,0,0,0-2.8,7.41,10.14,10.14,0,0,0,2.76,6.53c1.68,1.8,4.61,3.14,8.78,4a57.89,57.89,0,0,0,12.91,1.17,34.06,34.06,0,0,0-3.28-14.49q-3.15-6.44-8.13-8"/><path class="cls-1" d="M277,450c.11,0,.33,0,.69,0,.78,0,1.51-.07,2.28-.07h.3c.18,0,.4,0,.44-.08s-1-4.48-1.11-5a29.45,29.45,0,0,1-.91-3.93c-.11.55-.22,1.14-.33,1.69-.19.92-.37,1.88-.56,2.79-.18,1.25-.44,2.69-.73,3.9a5.46,5.46,0,0,0-.18.62s0,.08.11.08"/><path class="cls-1" d="M379.79,60c3.3-.43,22.78,6.58,22.07,49.26,0,0,7.81-41.18-15.12-50.3-22.71-9-3.26,13.36-2.87,13.8-.2-.33-7.34-12.33-4.08-12.76"/><path class="cls-1" d="M508.78,411.35c-4,2.89-6.18,6-6.52,9.27a10.35,10.35,0,0,0,.6,4.42c2,4.22,6.2,6.49,12.72,6.87s13.09-3.24,19.86-10.87A67,67,0,0,0,543,408.46l-3.82-.48c-14.83-1.82-25-.62-30.4,3.37"/><path class="cls-1" d="M251.89,329.49q-4.95,10.29-4.68,17.1a12.58,12.58,0,0,0,2.44,7.34,12.87,12.87,0,0,0,9.2,4.87q5.55.43,11.72-5.17t9.19-21.56a57,57,0,0,1-9.23,1,42.16,42.16,0,0,1-18.64-3.6"/><path class="cls-1" d="M340.79,442.28a5.8,5.8,0,0,0,2.79-.84,3.64,3.64,0,0,0,1.17-2.76,2,2,0,0,0-.77-1.76,5.54,5.54,0,0,0-3.05-.78h-.33v.74c0,.59,0,1.18,0,1.95,0,1.14.07,2.31.15,3.45"/><path class="cls-1" d="M386.74,440.92c-.12.55-.23,1.14-.34,1.69-.18.92-.36,1.88-.55,2.79-.18,1.26-.44,2.69-.73,3.9a4.8,4.8,0,0,0-.18.63s0,.07.11.07.33,0,.69,0c.77,0,1.51-.07,2.28-.07h.3c.18,0,.4,0,.44-.07s-1-4.49-1.11-5a29.45,29.45,0,0,1-.91-3.93"/><path class="cls-1" d="M322,449.3c-.11.37-.19.55-.19.62s0,.08.11.08.33,0,.7,0c.77,0,1.51-.07,2.28-.07h.29c.19,0,.41,0,.44-.08s-.95-4.48-1.1-5a29.49,29.49,0,0,1-.92-3.93c-.11.55-.22,1.14-.33,1.69l-.55,2.79c-.18,1.25-.44,2.69-.73,3.9"/><path class="cls-1" d="M480.16,294.18c-3,1-7.09,5.72-12.33,14.2a131.6,131.6,0,0,0-12.66,26.87,54.53,54.53,0,0,0-2.91,12.62c-.45,6.31,1.42,9.61,5.62,9.93,4.64.36,10.55-5.45,17.9-17.39,1.55-6.08,5.9-19.25,13.29-39.44a13.76,13.76,0,0,0-2.54-5.72c-1.29-1.7-3.42-2.06-6.37-1.07"/><path class="cls-2" d="M55.3,260.3a26.31,26.31,0,0,1-3-6.52,29.92,29.92,0,0,1-1.1-7.18,28.05,28.05,0,0,1,3.44-14.13,38.22,38.22,0,0,1,9.45-11C66,220,68,218.69,70,217.37c2.14-1.07,4.24-2.2,6.4-3.19-1.91,1.44-3.88,2.75-5.79,4.11s-3.67,2.94-5.41,4.49c-.8.84-1.61,1.68-2.44,2.49l-1.22,1.23-1.06,1.37c-.69.92-1.47,1.78-2.12,2.72l-1.76,2.95a30.66,30.66,0,0,0-3.7,13.07A32.33,32.33,0,0,0,55.3,260.3"/><path class="cls-2" d="M127.39,221.74a37.3,37.3,0,0,1,9,9.19,47,47,0,0,1,6,11.5,48.53,48.53,0,0,1,2.73,12.68,49.92,49.92,0,0,1,.13,6.47c-.14,2.14-.44,4.28-.75,6.39a101.14,101.14,0,0,0-1.13-12.64,65.22,65.22,0,0,0-3.1-12.13,61.56,61.56,0,0,0-5.36-11.31,59.49,59.49,0,0,0-7.54-10.15"/><path class="cls-2" d="M83.26,239.08a19.47,19.47,0,0,1,6.44-2.91,23.58,23.58,0,0,1,7.11-.74,27.18,27.18,0,0,1,3.58.46,21.34,21.34,0,0,1,3.42,1.11,17.85,17.85,0,0,1,5.91,3.9,48.66,48.66,0,0,0-6.47-2.23,29.73,29.73,0,0,0-6.56-1,47.36,47.36,0,0,0-13.43,1.4"/><path class="cls-2" d="M48.05,317.31c-1.42,1.94-2.83,3.86-4.1,5.88s-2.62,4-3.79,6a108.26,108.26,0,0,0-6.34,12.65,72.92,72.92,0,0,0-4,13.48,44.58,44.58,0,0,0-.64,7c-.27,2.38.19,4.71.25,7.13a38.43,38.43,0,0,1-1.33-14.38A54.53,54.53,0,0,1,31.73,341a71.33,71.33,0,0,1,7-12.72,65,65,0,0,1,9.35-11"/><path class="cls-2" d="M73.48,394.81a40.21,40.21,0,0,0,12.13,3.52,31.24,31.24,0,0,0,12.3-.82,22.42,22.42,0,0,0,2.94-1l1.46-.52,1.38-.71c.91-.48,1.88-.88,2.76-1.43l2.61-1.73a17.05,17.05,0,0,0,2.5-1.91l2.45-2c1.56-1.43,3-3,4.59-4.48q-1.8,2.67-3.8,5.25l-2.26,2.36a16.23,16.23,0,0,1-2.41,2.2,31.19,31.19,0,0,1-11.64,6.13,29.53,29.53,0,0,1-25-4.88"/><path class="cls-2" d="M136.84,384.72a10.85,10.85,0,0,1-.3-5.43,12.78,12.78,0,0,1,2.15-5.15,13.29,13.29,0,0,1,9.26-5.49c-1.46,1.1-2.88,2-4.12,3.16a19.76,19.76,0,0,0-3.3,3.62,23.29,23.29,0,0,0-3.69,9.29"/><path class="cls-2" d="M202,212.7a21.3,21.3,0,0,1,14.55,9.07,19,19,0,0,1,3.15,8.27,20.83,20.83,0,0,1,.17,4.39,35.56,35.56,0,0,1-.72,4.27,42.14,42.14,0,0,0-1.18-8.31,22.13,22.13,0,0,0-3.29-7.36,25.48,25.48,0,0,0-5.53-5.93,38.51,38.51,0,0,0-7.15-4.4"/><path class="cls-2" d="M178.57,345.34c.71,2.33,1.44,4.64,2.32,6.9a71.81,71.81,0,0,0,2.79,6.65c2.11,4.27,4.58,8.43,8,11.53a14.72,14.72,0,0,0,12.51,4,23.72,23.72,0,0,0,6.69-2.18c1.11-.46,2.12-1.11,3.2-1.66l3.09-1.94a27.9,27.9,0,0,1-12.66,7.49,15.16,15.16,0,0,1-7.68-.19,17.57,17.57,0,0,1-6.66-3.85,33.54,33.54,0,0,1-8.07-12.52,54.82,54.82,0,0,1-3.53-14.24"/><path class="cls-2" d="M255.58,373.37A59.91,59.91,0,0,0,266,370.61a41.79,41.79,0,0,0,9.37-4.78,30.18,30.18,0,0,0,7.52-7.22,41.23,41.23,0,0,0,5.08-9.4,26.25,26.25,0,0,1-3.62,10.38l-.72,1.22c-.27.38-.58.73-.87,1.1-.6.71-1.15,1.49-1.8,2.15L278.88,366c-.7.63-1.49,1.14-2.24,1.71a33.88,33.88,0,0,1-21.06,5.68"/><path class="cls-2" d="M249.78,284.64a39.51,39.51,0,0,1,9.48-3.31,37,37,0,0,1,10.09-.91,24.36,24.36,0,0,1,9.95,2.48,16.68,16.68,0,0,1,7.09,7.17,22,22,0,0,0-7.83-5.57,28.86,28.86,0,0,0-9.32-1.83,54.35,54.35,0,0,0-9.69.39c-3.24.4-6.5.89-9.77,1.58"/><path class="cls-2" d="M306.5,353.13a53,53,0,0,0,4.44,9,20.4,20.4,0,0,0,6.55,6.85,12.3,12.3,0,0,0,9,1.41,33.34,33.34,0,0,0,9.2-3.63,22,22,0,0,1-8.79,5.34,14.11,14.11,0,0,1-5.35.56,13.25,13.25,0,0,1-5.19-1.74,19,19,0,0,1-6.93-7.92,29.16,29.16,0,0,1-2.91-9.83"/><path class="cls-2" d="M360.68,366.84c7.81,3.75,16.75,4.57,24.5,1.48a31.13,31.13,0,0,0,5.47-3,37.58,37.58,0,0,0,5-3.87c1.57-1.42,2.94-3.06,4.47-4.57,1.34-1.67,2.64-3.39,4.07-5.05-1,1.93-2.12,3.8-3.19,5.72-1.35,1.71-2.59,3.56-4.11,5.15A32.73,32.73,0,0,1,386,370.42a26.29,26.29,0,0,1-25.33-3.58"/><path class="cls-2" d="M401.45,309.1a46.08,46.08,0,0,1,1.74-11.76,33.2,33.2,0,0,1,5.12-10.95,17.54,17.54,0,0,1,4.59-4.24,12.21,12.21,0,0,1,6-1.81c4.29-.16,8.05,1.93,11.14,4.3a30.48,30.48,0,0,0-5.47-2,14.24,14.24,0,0,0-5.55-.51c-3.66.39-6.74,2.69-9,5.67a40.28,40.28,0,0,0-5.24,10.12,103.37,103.37,0,0,0-3.41,11.22"/><path class="cls-2" d="M430.08,345.82c1.32,4.14,2.84,8.17,4.52,12.1A55.68,55.68,0,0,0,440.74,369c2.45,3.34,5.6,6.28,9.53,7.3s8.24-.06,12.12-2a20.29,20.29,0,0,1-5.76,3.16,13.82,13.82,0,0,1-6.74.52,15,15,0,0,1-6.26-2.82,25.08,25.08,0,0,1-4.69-4.86,43.74,43.74,0,0,1-6-11.78,57.12,57.12,0,0,1-2.89-12.73"/><path class="cls-2" d="M480.27,372.7c3.72,3.1,7.86,5.48,12.34,5.82a7.09,7.09,0,0,0,1.66.07,8.47,8.47,0,0,0,1.67-.1l1.68-.23c.54-.17,1.09-.32,1.65-.46a7.94,7.94,0,0,0,1.64-.56l1.64-.63c1.08-.49,2.12-1.08,3.27-1.55a29.4,29.4,0,0,1-2.71,2.5,18.21,18.21,0,0,1-3.23,1.89,14.48,14.48,0,0,1-7.48,1.32,15,15,0,0,1-7.14-2.62,15.75,15.75,0,0,1-5-5.45"/><path class="cls-2" d="M515.42,376.22a30.05,30.05,0,0,0,7.14,5.62,20,20,0,0,0,8.34,2.56,17.54,17.54,0,0,0,2.18.05,10,10,0,0,0,2.18-.19,20.18,20.18,0,0,0,2.18-.35c.71-.21,1.43-.4,2.16-.59,1.45-.38,2.81-1.07,4.26-1.57s2.72-1.39,4.18-2c-1.16,1-2.4,2-3.65,3A33,33,0,0,1,540.2,385a20.41,20.41,0,0,1-9.49,1.67,18.17,18.17,0,0,1-9.08-3.31,19.61,19.61,0,0,1-6.21-7.11"/><path class="cls-2" d="M493,442a66.52,66.52,0,0,0,13.13,6,46.21,46.21,0,0,0,14,2.26,40.53,40.53,0,0,0,7-.57,43.69,43.69,0,0,0,6.79-2c4.52-1.57,8.47-4.37,12.49-7.14-.86.86-1.74,1.7-2.65,2.53a21.35,21.35,0,0,1-2.79,2.41,36.17,36.17,0,0,1-6.37,3.79c-2.18,1.25-4.65,1.76-7,2.51a41.55,41.55,0,0,1-7.46.74,39.3,39.3,0,0,1-14.56-2.9A42.79,42.79,0,0,1,493,442"/><path class="cls-2" d="M581.38,411.05a30,30,0,0,1,6.91,4.25,29.3,29.3,0,0,1,5.66,5.94,17.36,17.36,0,0,1,3.26,7.7,11.39,11.39,0,0,1-1.82,8,15,15,0,0,0,.09-7.63,20.43,20.43,0,0,0-3.37-6.74c-3-4.2-6.8-7.81-10.73-11.49"/><path class="cls-2" d="M593.58,303.54a7.24,7.24,0,0,1,4.63,3.39,15.09,15.09,0,0,1,2.19,5.4c.18.95.28,1.9.38,2.85a27.07,27.07,0,0,1,0,2.85,22.52,22.52,0,0,1-1,5.57c-.35-1.89-.51-3.71-.72-5.51s-.46-3.58-.83-5.3a24.26,24.26,0,0,0-1.5-5,10.53,10.53,0,0,0-3.11-4.25"/></g></g></svg>