<svg xmlns="http://www.w3.org/2000/svg" viewBox="0 0 1448.05 549.61"><defs><style>.cls-1{fill:#721804;}</style></defs><g id="Layer_2" data-name="Layer 2"><g id="BACKGROUND_1" data-name="BACKGROUND 1"><path class="cls-1" d="M1444.83,526.89v-7.14c4.89-.88,3.65-1.5,0-2V0H3.83V522.65l-3.8.12a9.67,9.67,0,0,0,3.8,1.38v2.74h46c5,.28,9.08.61,10.93.85,6.37.22,31.8,1.11,27.06-.16,24.8,1.52,54,1.25,80.66,2-6.78.37-14.1,1.4-20.46,2-8.74-.81-4.94,1.38-12.84,1.88-5-.49-13.7.58-16.75-.5,7-.1,7.93-2.18,15.27-1.73-2.8-.7,12.42-.75,5.88-1.77-14.13,1.71-31.63.1-44.59,1.8,1-2.08-16.1-1.26-21.79-1l-.36-.56a93,93,0,0,0-16.28.25c-9.3.14-18.47.46-26.31-.73C18.71,527.8,5,530.07,0,531.45c14.13,1.85,27.4-1.16,37.88,2.24-9.8-.6-10.46.16-18,1.21l4,.69-3.24.42c1.66.73-2.62,1.35-2.13,2.09H30.23c-6.3-.65-2.14-1.46-.3-2.24l6,.28c-1.4-.35-5.13-.67-.73-1.11,2.44.15,5.68-.27,8.37.25l-4.81,1.57c7.39-1.24,13,1.86,20.37.63l2.25,1.65,7-.11-.79.57,8.37.25c4.53-.25,5.2-1,6-1.59,3.49,0,6.85-.29,8.26.07l-4,1,3.74.32c-2.56-.33,3.12-.61,4-1,8.38.24,5.93.09,11.19,1,5.44-.65,12.1.56,12.42-.75,9.92.78,20.49.81,29.92.86l4.16-.82c11.19,1,16.27-.24,27.89-.42l-.92.39,6.36-1c8.76.8,12.18-1.12,22.34,0,10.95.59,15.89-.8,19.45-2.54,5.31-.83,12,.38,16.75.5l-3.11.61,4,.68c6.86-.29,7.23.27,16.17-.43,1.07.07,2,.11,2.89.12a172.07,172.07,0,0,0,35.92,7.68c3,1.16,6.09,1.17,9.09,1.39a34.15,34.15,0,0,1,4.5.56,16.29,16.29,0,0,1,4.52,1.52l-1-.52c-.13-.29.66-.37,1.29-.47-1-.56-1.95-1.13-2.87-1.7a40.59,40.59,0,0,0,5.47.57,4.47,4.47,0,0,1,2.53-.74c1.11-.1,2.42-.08,3.76-.06,2.65,0,5.4.09,6.66-.9,10,.57,5.84,1.43,15.81,2.1,5.28-.81,11.52-1.89,17.66-1.57,2.22.1,4.21,1,3.83,1.45,1.32,0,2.93,0,4.53,0s3.21.15,4.54.28c2.89-.23,4.28-.58,4.65-.95s-.26-.86-1.42-1.28a38.66,38.66,0,0,0-8.9-1.77c1.08-1.44,6.89-.22,6.39-1.6a2.64,2.64,0,0,0-1.11-1.63l-3,.61c-3.72-.48-2.94-.86-1.82-1.37s2.55-1,0-1.83a5.61,5.61,0,0,0-2.13.25c-2.5.65-1.78,1-.37,1.81-7.17.05-4.4-3.88-8.35-3.87-5.42.5-2.07,2.93-3.37,3.81.06-2.43-9.83-4.15-17.75-4.13a52.05,52.05,0,0,1-11.71,0,64.76,64.76,0,0,0-12.77,0c-1.51-.21-3.2-.4-5-.67,5.59-.15,10.79-.46,15.68-.84,4.67.45,10.93,1,15.09,0a54.11,54.11,0,0,0,9.94-.08c-.4.28-.44.58.36.91a21.12,21.12,0,0,1,4.32-.5c.69-.35.65-.75.22-1.07,2.67-.44,5.25-.94,8-1.31,9.67,0,18,0,18.9.9-2.91.65-12.82.43-16.54.78-14.33,5.86,36.77-1.9,56.17.08,1.85-.18-1.66-.61,2.9-.65L400,532c1.48-2,42.37-2.42,52.71-3.76,17.73,1.35-19,3.31,17.11,3.68,9.51-1.66,33.43.24,47.28-.69l-1.65-.6c33.66-.53,16.51,4.44,41.61,3.78-23.09-1,16-.76-7.09-1.77-13.22-1.22,0-5.64-16.29-5.61l-.59-.12h58.06c8,1,13.67,2.27,12.61,3.26-4.28-.11-5.53-.31-7.3,0,1.27.2,3.76.6-2.29.77l24.36.48-1,1c10.68-.31,19-.34,26.19-.22a9.51,9.51,0,0,1-1.42.46c1.92.7,5.5.27,7.19-.31l.56,0c1.42.57,4.43.45,7.44.32,2.51.13,4.94.27,7.37.43a1,1,0,0,1,.53.59c.65-.17,1.28-.31,1.9-.44,3.22.22,6.48.44,10,.66,1.91,0,3.91-.08,6-.14a46.88,46.88,0,0,0,6.35.47c5.74,0,6.82-.37,6.82-.94,11.3-.42,22.81-.82,31.39-.33,2.33-.28,4.86-.58,7.62-.87,17.36,1,34.75,1.76,52,2.74a51,51,0,0,0,7.15,1c2.37.2,4.71.29,7,.42a45.75,45.75,0,0,1,14,2.47L814,538c-.21-.3,1-.33,2-.39q-2.31-.93-4.46-1.88c2.83.41,5.68.74,8.5.93,1.64-.84,5.68-.53,9.83-.21s8.41.71,10.5-.09c15.65,2.05,9,2.27,24.74,4.64,8.53.16,18.71.26,28.73,1.63,3.63.48,6.85,1.73,6.2,2.09,4.38.35,10.64,1,15.15,1.61,19.52.41-2.07-3.81-9.34-4.78,1.83-1.27,11.31.71,10.51-.76a3.47,3.47,0,0,0-1.81-1.76l-4.93.21c-12-2,5.24-1.2-2.73-3.44a14.27,14.27,0,0,0-3.41-.07c-4.05.28-2.94.77-.71,1.75-11.56-1.09-6.73-4.54-13-5.22-8.69-.43-3.63,2.55-5.81,3.2.34-2.28-13.73-5.61-26.06-7.07l4.4-.11,16.25-.35c-1.79.42-6.88.5-3.83,1.65a54.28,54.28,0,0,1,6.94.28c2.18-.42.17-1.5-2.41-1.95,22-.44,44.46-.78,67.14-.93.08.05,0,.09-.14.16l-.14.06c1.08.72,6.12-.26,9.79-.27H956a13,13,0,0,1,1.44.07,3.64,3.64,0,0,0,.49-.08h3.75l1.9.15c-22.75.55-40.13,1.69-49.38,1.8l11.56.07c-12.8.82,13.63,1.55,3.12,2.1,24.44-.19,55.71,1.46,72.3.17,10.88.43,21.43,0,29.42-2.41,1.18,1.72,12.39,2.64,16.76,2.65,2,.63,5.88,1.09,8,1.56a8.31,8.31,0,0,1-3.7-.27l2.56.56c-9.7,0-28.47-2.43-26.66.1s18.9,3,31.28,4.11c-10.58,1.45-23.09-.19-33.93.13,2.56.56,4,1.4,7.67,1.67l14,1.11c4.69.08,8.87-.31,13.07,1l1.22.09c.83-.07,1.61-.35,2.45-.35,3.71.26,4.48,1,8.62.53,0,.15-.12.26-.36.35,1.26-.18,3.23.12,4.64-.23a1.29,1.29,0,0,0,.42.8c9,.59,18.14,1.1,27.41,1.49l8.16.3c2.3,0,4.65,0,7.08.06a9.54,9.54,0,0,0,2.87-.72c3.13.41,6.25.83,9.95,1.09.58-.14,1.79-.15,2.94-.43a21.3,21.3,0,0,0,2.17.63l13.79.22v-.07c6.48-.12,15,.46,21.37.17h0l5.67.38a1.29,1.29,0,0,1-.42-.8,9.47,9.47,0,0,1-2.12.18,20,20,0,0,0,3.23-.61,32.61,32.61,0,0,0,5.76,1.21l15.65.36c.45-.2.08-.47,0-.67,2.3.25,4.62.58,7,.88q6.28.2,12.68.49c1-.11,2-.26,3-.47a8.18,8.18,0,0,0,2.1.71l4.8.25c4.34.23,12.17.28,20.4.22a3.69,3.69,0,0,1,1.41-.31c2.35,0,4.62.1,6.82.21,7.59-.13,14.63-.34,18.57-.59,4.72-.59-9.83-3.75-8.82-4.6,5.33-3.13,14.64-1.61,27.65-3.14,3.57-.32-2.56-.54-2.7-1.11a12.42,12.42,0,0,1,2-.77q3.78-.11,7.55-.29l-1.07,0c-2.21,0-4.35.11-6.33.27,2.38-.67,5.59-1.19,8.11-1.84-19-.72-38.06-.81-57.12-.64,7.17.27,14.2.67,20.92,1.47-12.48-.37-25-.86-37.64-1.33-13.49.12-26.94.19-40.33-.06a25.68,25.68,0,0,1,3.85-.61c-4.69.11-9.39.15-14.09.16l-4.29.51c.51-.13,1.75-.32,2.62-.51-14.55,0-29-.44-43-.74a5.12,5.12,0,0,0,2.19-.46l-2.27,0c-2,.09-4.07.16-6,.17,2-.17,4-.16,6-.17l2.48-.11a3.5,3.5,0,0,1,2.07-.09,70.92,70.92,0,0,1,9.94,0c10,1.08,19.39-.08,28.08.73,2,.15,1.52.39.46.63H1179a94.12,94.12,0,0,1,10-.68l11.23.24h2.17l-1.09,0c9.52.25,18.94.58,28.28.92l16.72-.14c-10.14-.39-20.55-.53-30.64-1.15,6.74-.56,14.09-.87,21.54-.87l-14.54-.29a80.89,80.89,0,0,1-10-1.08,113.85,113.85,0,0,0,12.46,0l-10.85-.39,7.25-.33-.29-.07c2.4.08,4.79.23,7.13.48-1.08.13-2.15.23-3.24.31,14.75.48,29.18.82,43.55.94-7.66-1.66-19.39.08-28.2-1.3,29.33-.72,61.43,1.45,90.51-1.25,14.38,0,29-.18,43.37-.55l-.56-.24c5.3-.16,10.2-.68,15.7-.85,14.55,1.16,30,5.55,44.65,8.1,4.87-.19,7.82,1,12.13,1.95a80.13,80.13,0,0,0-10.43-5.12l-3.17-1.3-3.32-1.16c-2.24-.76-4.53-1.5-6.79-2.19-7.53.17,7.63,3.72,6.68,4.19.38.68-1.77,0-3.52-.14-3.84-1.28-7.66-3-7.58-4.18l-2.69.6c-1.9-.41-3.82-.91-5.77-1.43,1.69-.13,3.28-.27,4.67-.44ZM178.88,530l4.18.19C181.63,530.16,180.18,530.1,178.88,530Zm132-3.08h10.35A72.36,72.36,0,0,1,310.83,526.9Zm94.22.08-.91-.09h1.45Zm242.51,2.32-3.36-.07c1.46-.17,2.65-.32,3.6-.45C647.93,528.92,647.86,529.09,647.56,529.3Zm323.57-2.36-1.28,0,0,0Zm9.1,1.33,2.81-.16c.64.06,1,.09,2.39.26.56.31-.31.44-.21.69a7.82,7.82,0,0,1,3.38.16C983.6,529,979.68,528.78,980.23,528.27Zm22.18,1.55h-.83c-1.86-.15-4-.25-6.28-.35,1.59-.1,3-.25,3.05-.57,2.9,0,2.91.41,2.62.86l1.85,0Zm59.7.36c21.73-1.47,45.21-.81,69.47,0h.1C1108.84,530.42,1084.47,531.09,1062.11,530.18Zm-426.72-3c-3.3-.07-6.55-.17-9.1-.33h9A.27.27,0,0,0,635.39,527.22Z"/><path class="cls-1" d="M729.27,533l-1.51-.08c-3,.35-5.62.65-8.06.84Z"/><path class="cls-1" d="M928.85,531.07c-4.62,0-9,.14-13,.33C922.5,531.3,926.55,531.19,928.85,531.07Z"/><path class="cls-1" d="M460.06,534.33l20.88-.08c-5.14-1,24.79-1.21,1.48-2C480.32,533.17,459.46,533.25,460.06,534.33Z"/><path class="cls-1" d="M1301.67,533.34q12.57.42,24.76.48c1.08-.11,2.15-.24,3.21-.41C1320.51,532.72,1310.79,533.55,1301.67,533.34Z"/><path class="cls-1" d="M1363.11,534.59c-7.92-.27-16.34-.11-24.63.21C1346.91,534.69,1355.2,534.49,1363.11,534.59Z"/><path class="cls-1" d="M1233.54,548c-3.7-.27-6.83-.68-10-1.09a10.09,10.09,0,0,1-2.87.72c-2.43-.09-4.78-.09-7.07-.07,8.57.29,16.87.48,25,.63-.77-.18-1.5-.39-2.18-.62C1235.33,547.84,1234.11,547.85,1233.54,548Z"/><path class="cls-1" d="M1252.42,548.34l0,.06,33.52.46a33.93,33.93,0,0,1-5.79-1.2C1274.5,549.38,1261.47,548.16,1252.42,548.34Z"/><path class="cls-1" d="M1347.66,536.37c-2.78.19-5.57.34-8.35.48s-5.58.3-8.36.4c12.66,0,25.21-.15,37.71-.89-3.39-.1-6.84-.1-10.35-.11Z"/><path class="cls-1" d="M1301.69,549.12l7,.14c-2.36-.25-4.7-.58-7-.8C1301.76,548.66,1302.14,548.93,1301.69,549.12Z"/><path class="cls-1" d="M1321.54,549.5l5.18.11a7.66,7.66,0,0,1-2.13-.65A29.54,29.54,0,0,1,1321.54,549.5Z"/><path class="cls-1" d="M1352.33,549c2.78-.18,5.61-.44,8.36-.67-2.23.05-4.55.15-6.94.28A3.56,3.56,0,0,0,1352.33,549Z"/><path class="cls-1" d="M943.28,544.4l-4.76-.08c3.26,1.57.15,3,9.3,5a26.24,26.24,0,0,0,9-.3C958.83,548,949.42,545.75,943.28,544.4Z"/><path class="cls-1" d="M959.14,545.09l.85-1.54-2.71,1.18C958.15,544.8,958.27,545,959.14,545.09Z"/><path class="cls-1" d="M923.7,542.05l4.85,1.21c.11.21-2.41.2-1.41.48l4.39.38C930.38,542,930.31,543.41,923.7,542.05Z"/><path class="cls-1" d="M632.08,532.5c-5.59,1.49-11.76,1.92-17.7,2.46s-11.65,1.31-16.21,3.5c3.23,4.31,19-2.63,26.44-1.89,4.72-1,7.51-1.82,13.48-2.9C642.43,532.28,635.11,532.41,632.08,532.5Z"/><path class="cls-1" d="M594.88,536.65a19.05,19.05,0,0,0-3.32.76c-.83.51,1.52.56,2.62.74C595.42,538,598.47,536.58,594.88,536.65Z"/><path class="cls-1" d="M402.24,545.86a21.89,21.89,0,0,0-2.7-1.36c-1-.43-2-.88-2.86-1.18l-2.89-.05c.91.77.85,1.51,1.22,2.29s1.18,1.56,3.68,2.61a10.91,10.91,0,0,0,5.33,0C404.72,547.68,403.8,546.82,402.24,545.86Z"/><path class="cls-1" d="M406.24,544.45l.86-1.45-1.93,1C405.69,544.12,405.72,544.33,406.24,544.45Z"/><path class="cls-1" d="M384.9,541.55l2.91,1c.06.2-1.47.32-.88.55.88,0,1.77.09,2.64.18C389,541.19,388.88,542.56,384.9,541.55Z"/></g></g></svg>