<?xml version="1.0" encoding="utf-8"?>
<!-- Generator: Adobe Illustrator 26.0.1, SVG Export Plug-In . SVG Version: 6.00 Build 0)  -->
<svg version="1.1" id="Layer_1" xmlns="http://www.w3.org/2000/svg" xmlns:xlink="http://www.w3.org/1999/xlink" x="0px" y="0px"
	 viewBox="0 0 1448.1 549.6" style="enable-background:new 0 0 1448.1 549.6;" xml:space="preserve">
<style type="text/css">
	.st0{fill:#0f1c2d;}
</style>
<g id="Layer_2_00000009564476902046614870000017795451580168191917_">
	<g id="BACKGROUND_1">
		<path class="st0" d="M1452.3,526.9v-7.1c4.9-0.9,3.7-1.5,0-2V0H0.1v522.7l-3.8,0.1c1.2,0.7,2.5,1.2,3.8,1.4v2.7h46.4
			c5,0.3,9.2,0.6,11,0.8c6.4,0.2,32,1.1,27.3-0.2c25,1.5,54.4,1.2,81.3,2c-6.8,0.4-14.2,1.4-20.6,2c-8.8-0.8-5,1.4-12.9,1.9
			c-5-0.5-13.8,0.6-16.9-0.5c7.1-0.1,8-2.2,15.4-1.7c-2.8-0.7,12.5-0.8,5.9-1.8c-14.2,1.7-31.9,0.1-44.9,1.8c1-2.1-16.2-1.3-22-1
			l-0.4-0.6c-5.5-0.4-11-0.3-16.4,0.2c-9.4,0.1-18.6,0.5-26.5-0.7c-11.6-1.4-25.4,0.8-30.5,2.2c14.2,1.8,27.6-1.2,38.2,2.2
			c-9.9-0.6-10.5,0.2-18.1,1.2l4,0.7l-3.3,0.4c1.7,0.7-2.6,1.3-2.1,2.1h11.8c-6.3-0.7-2.2-1.5-0.3-2.2l6,0.3
			c-1.4-0.3-5.2-0.7-0.7-1.1c2.5,0.2,5.7-0.3,8.4,0.2l-4.8,1.6c7.4-1.2,13.1,1.9,20.5,0.6l2.3,1.7l7.1-0.1l-0.8,0.6l8.4,0.2
			c4.6-0.2,5.2-1,6-1.6c3.5,0,6.9-0.3,8.3,0.1l-4,1l3.8,0.3c-2.6-0.3,3.1-0.6,4-1c8.4,0.2,6,0.1,11.3,1c5.5-0.7,12.2,0.6,12.5-0.8
			c10,0.8,20.6,0.8,30.2,0.9l4.2-0.8c11.3,1,16.4-0.2,28.1-0.4l-0.9,0.4l6.4-1c8.8,0.8,12.3-1.1,22.5,0c11,0.6,16-0.8,19.6-2.5
			c5.4-0.8,12.1,0.4,16.9,0.5l-3.1,0.6l4,0.7c6.9-0.3,7.3,0.3,16.3-0.4c1.1,0.1,2,0.1,2.9,0.1c11.8,3.8,23.9,6.4,36.2,7.7
			c3,1.2,6.1,1.2,9.2,1.4c1.5,0.1,3,0.3,4.5,0.6c1.6,0.3,3.1,0.8,4.6,1.5l-1-0.5c-0.1-0.3,0.7-0.4,1.3-0.5c-1-0.6-2-1.1-2.9-1.7
			c1.8,0.3,3.7,0.5,5.5,0.6c0.8-0.5,1.6-0.8,2.5-0.7c1.1-0.1,2.4-0.1,3.8-0.1c2.7,0,5.4,0.1,6.7-0.9c10.1,0.6,5.9,1.4,15.9,2.1
			c5.3-0.8,11.6-1.9,17.8-1.6c2.2,0.1,4.2,1,3.9,1.5c1.3,0,3,0,4.6,0c1.6,0,3.2,0.2,4.6,0.3c2.9-0.2,4.3-0.6,4.7-1
			c0.4-0.4-0.3-0.9-1.4-1.3c-2.9-0.9-5.9-1.5-9-1.8c1.1-1.4,6.9-0.2,6.4-1.6c-0.1-0.7-0.5-1.3-1.1-1.6l-3,0.6
			c-3.7-0.5-3-0.9-1.8-1.4c1.1-0.5,2.6-1,0-1.8c-0.7-0.1-1.5,0-2.1,0.2c-2.5,0.7-1.8,1-0.4,1.8c-7.2,0-4.4-3.9-8.4-3.9
			c-5.5,0.5-2.1,2.9-3.4,3.8c0.1-2.4-9.9-4.2-17.9-4.1c-3.9,0.4-7.9,0.4-11.8,0c-4.3-0.4-8.6-0.4-12.9,0c-1.5-0.2-3.2-0.4-5-0.7
			c5.6-0.2,10.9-0.5,15.8-0.8c4.7,0.5,11,1,15.2,0c3.3,0.3,6.7,0.3,10-0.1c-0.4,0.3-0.4,0.6,0.4,0.9c1.4-0.3,2.9-0.5,4.4-0.5
			c0.7-0.3,0.7-0.8,0.2-1.1c2.7-0.4,5.3-0.9,8.1-1.3c9.7,0,18.1,0,19,0.9c-2.9,0.7-12.9,0.4-16.7,0.8c-14.4,5.9,37.1-1.9,56.6,0.1
			c1.9-0.2-1.7-0.6,2.9-0.7l-28.3,0c1.5-2,42.7-2.4,53.1-3.8c17.9,1.3-19.1,3.3,17.2,3.7c9.6-1.7,33.7,0.2,47.6-0.7l-1.7-0.6
			c33.9-0.5,16.6,4.4,41.9,3.8c-23.3-1,16.1-0.8-7.1-1.8c-13.3-1.2,0-5.6-16.4-5.6l-0.6-0.1H592c8.1,1,13.8,2.3,12.7,3.3
			c-4.3-0.1-5.6-0.3-7.4,0c1.3,0.2,3.8,0.6-2.3,0.8l24.5,0.5l-1,1c10.8-0.3,19.1-0.3,26.4-0.2c-0.5,0.2-0.9,0.3-1.4,0.5
			c1.9,0.7,5.5,0.3,7.2-0.3h0.6c1.4,0.6,4.5,0.5,7.5,0.3c2.5,0.1,5,0.3,7.4,0.4c0.3,0.1,0.4,0.3,0.5,0.6c0.7-0.2,1.3-0.3,1.9-0.4
			c3.2,0.2,6.5,0.4,10.1,0.7c1.9,0,3.9-0.1,6-0.1c2.1,0.3,4.3,0.5,6.4,0.5c5.8,0,6.9-0.4,6.9-0.9c11.4-0.4,23-0.8,31.6-0.3
			c2.3-0.3,4.9-0.6,7.7-0.9c17.5,1,35,1.8,52.4,2.7c2.4,0.5,4.8,0.8,7.2,1c2.4,0.2,4.7,0.3,7.1,0.4c4.8,0.1,9.6,0.9,14.1,2.5
			l-1.6-0.7c-0.2-0.3,1-0.3,2-0.4c-1.6-0.6-3.1-1.2-4.5-1.9c2.9,0.4,5.7,0.7,8.6,0.9c1.7-0.8,5.7-0.5,9.9-0.2
			c4.2,0.3,8.5,0.7,10.6-0.1c15.8,2,9.1,2.3,24.9,4.6c8.6,0.2,18.9,0.3,29,1.6c3.7,0.5,6.9,1.7,6.2,2.1c4.4,0.3,10.7,1,15.3,1.6
			c19.7,0.4-2.1-3.8-9.4-4.8c1.8-1.3,11.4,0.7,10.6-0.8c-0.4-0.8-1-1.4-1.8-1.8l-5,0.2c-12.1-2,5.3-1.2-2.8-3.4
			c-1.1-0.2-2.3-0.2-3.4-0.1c-4.1,0.3-3,0.8-0.7,1.8c-11.6-1.1-6.8-4.5-13.1-5.2c-8.8-0.4-3.7,2.5-5.9,3.2
			c0.3-2.3-13.8-5.6-26.3-7.1l4.4-0.1l16.4-0.3c-1.8,0.4-6.9,0.5-3.9,1.7c2.3-0.1,4.7,0,7,0.3c2.2-0.4,0.2-1.5-2.4-2
			c22.2-0.4,44.8-0.8,67.7-0.9c0.1,0,0,0.1-0.1,0.2l-0.1,0.1c1.1,0.7,6.2-0.3,9.9-0.3h0.1c0.5,0,1,0,1.5,0.1c0.2,0,0.3,0,0.5-0.1
			h3.8l1.9,0.2c-22.9,0.5-40.4,1.7-49.8,1.8l11.6,0.1c-12.9,0.8,13.7,1.5,3.1,2.1c24.6-0.2,56.1,1.5,72.9,0.2
			c11,0.4,21.6,0,29.6-2.4c1.2,1.7,12.5,2.6,16.9,2.7c2,0.6,5.9,1.1,8.1,1.6c-1.2,0.2-2.5,0.1-3.7-0.3l2.6,0.6
			c-9.8,0-28.7-2.4-26.9,0.1s19,3,31.5,4.1c-10.7,1.5-23.3-0.2-34.2,0.1c2.6,0.6,4,1.4,7.7,1.7l14.1,1.1c4.7,0.1,8.9-0.3,13.2,1
			l1.2,0.1c0.8-0.1,1.6-0.3,2.5-0.3c3.7,0.3,4.5,1,8.7,0.5c0,0.2-0.1,0.3-0.4,0.3c1.3-0.2,3.3,0.1,4.7-0.2c0,0.3,0.2,0.6,0.4,0.8
			c9.1,0.6,18.3,1.1,27.6,1.5l8.2,0.3c2.3,0,4.7,0,7.1,0.1c1-0.1,2-0.3,2.9-0.7c3.2,0.4,6.3,0.8,10,1.1c0.6-0.1,1.8-0.2,3-0.4
			c0.7,0.2,1.4,0.5,2.2,0.6l13.9,0.2v-0.1c6.5-0.1,15.1,0.5,21.5,0.2l0,0l5.7,0.4c-0.2-0.2-0.4-0.5-0.4-0.8
			c-0.7,0.1-1.4,0.2-2.1,0.2c1.1-0.1,2.2-0.3,3.3-0.6c1.9,0.6,3.8,1,5.8,1.2l15.8,0.4c0.5-0.2,0.1-0.5,0-0.7
			c2.3,0.2,4.7,0.6,7.1,0.9c4.2,0.1,8.5,0.3,12.8,0.5c1-0.1,2-0.3,3-0.5c0.7,0.3,1.4,0.6,2.1,0.7l4.8,0.2c4.4,0.2,12.3,0.3,20.6,0.2
			c0.4-0.2,0.9-0.3,1.4-0.3c2.4,0,4.7,0.1,6.9,0.2c7.6-0.1,14.7-0.3,18.7-0.6c4.8-0.6-9.9-3.8-8.9-4.6c5.4-3.1,14.8-1.6,27.9-3.1
			c3.6-0.3-2.6-0.5-2.7-1.1c0.6-0.3,1.3-0.6,2-0.8c2.5-0.1,5.1-0.2,7.6-0.3h-1.1c-2.2,0-4.4,0.1-6.4,0.3c2.4-0.7,5.6-1.2,8.2-1.8
			c-19.1-0.7-38.4-0.8-57.6-0.6c7.2,0.3,14.3,0.7,21.1,1.5c-12.6-0.4-25.2-0.9-37.9-1.3c-13.6,0.1-27.1,0.2-40.6-0.1
			c1.3-0.3,2.6-0.5,3.9-0.6c-4.7,0.1-9.5,0.2-14.2,0.2l-4.3,0.5c0.5-0.1,1.8-0.3,2.6-0.5c-14.7,0-29.2-0.4-43.3-0.7
			c0.8,0,1.5-0.1,2.2-0.5h-2.3c-2,0.1-4.1,0.2-6,0.2c2-0.2,4-0.2,6-0.2l2.5-0.1c0.7-0.2,1.4-0.3,2.1-0.1c3.3-0.2,6.7-0.2,10,0
			c10.1,1.1,19.5-0.1,28.3,0.7c2,0.2,1.5,0.4,0.5,0.6h1.8c3.3-0.4,6.7-0.6,10.1-0.7l11.3,0.2h2.2h-1.1c9.6,0.2,19.1,0.6,28.5,0.9
			l16.9-0.1c-10.2-0.4-20.7-0.5-30.9-1.2c6.8-0.6,14.2-0.9,21.7-0.9l-14.7-0.3c-3.4-0.2-6.7-0.5-10.1-1.1c4.2,0.2,8.4,0.2,12.6,0
			l-10.9-0.4l7.3-0.3l-0.3-0.1c2.4,0.1,4.8,0.2,7.2,0.5c-1.1,0.1-2.2,0.2-3.3,0.3c14.9,0.5,29.4,0.8,43.9,0.9
			c-7.7-1.7-19.5,0.1-28.4-1.3c29.6-0.7,61.9,1.5,91.2-1.2c14.5,0,29.2-0.2,43.7-0.5l-0.6-0.2c5.3-0.2,10.3-0.7,15.8-0.8
			c14.7,1.2,30.2,5.5,45,8.1c4.9-0.2,7.9,1,12.2,2c-3.4-2-6.9-3.7-10.5-5.1l-3.2-1.3l-3.3-1.2c-2.3-0.8-4.6-1.5-6.8-2.2
			c-7.6,0.2,7.7,3.7,6.7,4.2c0.4,0.7-1.8,0-3.5-0.1c-3.9-1.3-7.7-3-7.6-4.2l-2.7,0.6c-1.9-0.4-3.8-0.9-5.8-1.4
			c1.7-0.1,3.3-0.3,4.7-0.4L1452.3,526.9z M176.5,530l4.2,0.2C179.3,530.2,177.8,530.1,176.5,530z M309.6,526.9H320
			C316.5,527.2,313,527.2,309.6,526.9L309.6,526.9z M404.5,527l-0.9-0.1h1.5L404.5,527z M648.9,529.3l-3.4-0.1
			c1.5-0.2,2.7-0.3,3.6-0.5C649.2,528.9,649.2,529.1,648.9,529.3L648.9,529.3z M975,527h-1.3l0,0H975z M984.2,528.3l2.8-0.2
			c0.6,0.1,1,0.1,2.4,0.3c0.6,0.3-0.3,0.4-0.2,0.7c1.1-0.2,2.3-0.1,3.4,0.2C987.5,529,983.6,528.8,984.2,528.3L984.2,528.3z
			 M1006.5,529.8h-0.8c-1.9-0.2-4-0.2-6.3-0.3c1.6-0.1,3-0.2,3.1-0.6c2.9,0,2.9,0.4,2.6,0.9h1.9L1006.5,529.8z M1066.7,530.2
			c21.9-1.5,45.6-0.8,70,0h0.1C1113.7,530.4,1089.2,531.1,1066.7,530.2L1066.7,530.2z M636.6,527.2c-3.3-0.1-6.6-0.2-9.2-0.3h9.1
			C636.5,527,636.5,527.1,636.6,527.2L636.6,527.2z"/>
		<path class="st0" d="M731.2,533l-1.5-0.1c-3,0.3-5.7,0.7-8.1,0.8L731.2,533z"/>
		<path class="st0" d="M932.3,531.1c-4.7,0-9.1,0.1-13.1,0.3C925.9,531.3,930,531.2,932.3,531.1z"/>
		<path class="st0" d="M459.9,534.3l21-0.1c-5.2-1,25-1.2,1.5-2C480.3,533.2,459.3,533.2,459.9,534.3z"/>
		<path class="st0" d="M1308.1,533.3c8.4,0.3,16.8,0.4,25,0.5c1.1-0.1,2.2-0.2,3.2-0.4C1327,532.7,1317.2,533.5,1308.1,533.3z"/>
		<path class="st0" d="M1370,534.6c-8-0.3-16.5-0.1-24.8,0.2C1353.6,534.7,1362,534.5,1370,534.6z"/>
		<path class="st0" d="M1239.4,548c-3.7-0.3-6.9-0.7-10.1-1.1c-0.9,0.4-1.9,0.6-2.9,0.7c-2.4-0.1-4.8-0.1-7.1-0.1
			c8.6,0.3,17,0.5,25.2,0.6c-0.8-0.2-1.5-0.4-2.2-0.6C1241.2,547.8,1240,547.8,1239.4,548z"/>
		<path class="st0" d="M1258.4,548.3L1258.4,548.3l33.8,0.5c-2-0.2-3.9-0.6-5.8-1.2C1280.7,549.4,1267.5,548.2,1258.4,548.3z"/>
		<path class="st0" d="M1354.4,536.4c-2.8,0.2-5.6,0.3-8.4,0.5c-2.8,0.1-5.6,0.3-8.4,0.4c12.8,0,25.4-0.2,38-0.9
			c-3.4-0.1-6.9-0.1-10.4-0.1L1354.4,536.4z"/>
		<path class="st0" d="M1308.1,549.1l7.1,0.1c-2.4-0.2-4.7-0.6-7.1-0.8C1308.1,548.7,1308.5,548.9,1308.1,549.1z"/>
		<path class="st0" d="M1328.1,549.5l5.2,0.1c-0.7-0.1-1.5-0.3-2.1-0.7C1330.1,549.2,1329.1,549.4,1328.1,549.5z"/>
		<path class="st0" d="M1359.1,549c2.8-0.2,5.7-0.4,8.4-0.7c-2.2,0-4.6,0.2-7,0.3C1360,548.6,1359.6,548.8,1359.1,549z"/>
		<path class="st0" d="M946.9,544.4l-4.8-0.1c3.3,1.6,0.2,3,9.4,5c3,0.4,6.1,0.3,9.1-0.3C962.5,548,953.1,545.8,946.9,544.4z"/>
		<path class="st0" d="M962.9,545.1l0.9-1.5l-2.7,1.2C961.9,544.8,962,545,962.9,545.1z"/>
		<path class="st0" d="M927.1,542l4.9,1.2c0.1,0.2-2.4,0.2-1.4,0.5l4.4,0.4C933.9,542,933.8,543.4,927.1,542z"/>
		<path class="st0" d="M633.3,532.5c-5.6,1.5-11.9,1.9-17.8,2.5c-6,0.5-11.7,1.3-16.3,3.5c3.3,4.3,19.1-2.6,26.6-1.9
			c4.8-1,7.6-1.8,13.6-2.9C643.7,532.3,636.3,532.4,633.3,532.5z"/>
		<path class="st0" d="M595.8,536.7c-1.1,0.2-2.3,0.4-3.3,0.8c-0.8,0.5,1.5,0.6,2.6,0.7C596.3,538,599.4,536.6,595.8,536.7z"/>
		<path class="st0" d="M401.6,545.9c-0.9-0.5-1.8-1-2.7-1.4c-1-0.4-2-0.9-2.9-1.2l-2.9,0c0.9,0.8,0.9,1.5,1.2,2.3
			c0.4,0.8,1.2,1.6,3.7,2.6c1.8,0.4,3.6,0.4,5.4,0C404.1,547.7,403.2,546.8,401.6,545.9z"/>
		<path class="st0" d="M405.7,544.5l0.9-1.5l-1.9,1C405.1,544.1,405.1,544.3,405.7,544.5z"/>
		<path class="st0" d="M384.2,541.5l2.9,1c0.1,0.2-1.5,0.3-0.9,0.5c0.9,0,1.8,0.1,2.7,0.2C388.3,541.2,388.2,542.6,384.2,541.5z"/>
	</g>
</g>
</svg>
